<?xml version="1.0" standalone="no"?>
<!DOCTYPE svg PUBLIC "-//W3C//DTD SVG 1.1//EN" "http://www.w3.org/Graphics/SVG/1.1/DTD/svg11.dtd">
<svg version="1.1" xmlns="http://www.w3.org/2000/svg" viewBox="0 0 165.5 46.5" width="331" height="93"><!-- svg-source:excalidraw --><metadata></metadata><defs><style class="style-fonts">
      </style></defs><g transform="translate(12.5 36.5) rotate(0 70.25 -13.25)" stroke="none"><path fill="#1e1e1e" d="M -3.50,0.31 Q -3.50,0.31 -3.63,-1.36 -3.76,-3.04 -2.98,-5.33 -2.20,-7.63 -0.89,-9.59 0.41,-11.55 1.93,-13.18 3.45,-14.82 6.64,-16.94 9.83,-19.06 13.12,-19.68 16.42,-20.30 19.09,-19.44 21.77,-18.59 24.04,-15.68 26.31,-12.77 28.19,-10.65 30.07,-8.53 31.77,-7.22 33.46,-5.92 35.59,-5.69 37.72,-5.46 39.34,-7.10 40.97,-8.73 42.09,-11.40 43.21,-14.06 44.40,-16.58 45.58,-19.11 47.41,-20.37 49.24,-21.63 51.62,-22.15 53.99,-22.68 56.42,-22.82 58.85,-22.97 61.35,-22.60 63.85,-22.24 66.00,-20.69 68.16,-19.14 69.94,-17.12 71.72,-15.10 73.21,-13.09 74.71,-11.09 77.32,-10.13 79.93,-9.18 82.36,-10.47 84.80,-11.76 86.29,-13.46 87.78,-15.17 89.36,-17.31 90.94,-19.46 93.29,-21.13 95.64,-22.81 97.74,-23.31 99.83,-23.82 102.11,-23.91 104.38,-24.00 107.40,-23.62 110.42,-23.23 112.70,-21.95 114.97,-20.67 116.75,-18.49 118.53,-16.30 119.62,-14.46 120.71,-12.61 123.27,-12.91 125.82,-13.21 127.66,-15.46 129.49,-17.70 131.50,-20.04 133.52,-22.38 135.13,-24.24 136.74,-26.10 139.00,-27.29 141.26,-28.47 141.63,-28.70 141.99,-28.92 142.40,-29.02 142.81,-29.12 143.24,-29.08 143.66,-29.04 144.05,-28.86 144.44,-28.69 144.75,-28.40 145.06,-28.12 145.27,-27.74 145.47,-27.37 145.55,-26.95 145.62,-26.53 145.56,-26.11 145.50,-25.69 145.30,-25.32 145.11,-24.94 144.81,-24.64 144.50,-24.34 144.12,-24.16 143.74,-23.97 143.31,-23.92 142.89,-23.87 142.48,-23.96 142.06,-24.04 141.69,-24.25 141.32,-24.47 141.04,-24.79 140.76,-25.11 140.60,-25.50 140.44,-25.89 140.41,-26.32 140.38,-26.74 140.49,-27.15 140.59,-27.56 140.83,-27.92 141.06,-28.27 141.40,-28.53 141.73,-28.80 142.13,-28.94 142.53,-29.08 142.96,-29.09 143.38,-29.09 143.79,-28.96 144.19,-28.83 144.53,-28.58 144.87,-28.33 145.12,-27.98 145.36,-27.63 145.48,-27.23 145.60,-26.82 145.59,-26.39 145.57,-25.97 145.42,-25.57 145.27,-25.17 145.00,-24.85 144.73,-24.52 144.73,-24.52 144.73,-24.52 143.33,-22.93 141.93,-21.35 140.31,-19.47 138.69,-17.60 137.09,-15.80 135.49,-14.01 133.61,-11.65 131.74,-9.29 129.32,-7.52 126.89,-5.76 124.35,-5.47 121.81,-5.18 119.26,-6.02 116.70,-6.85 114.68,-9.64 112.65,-12.42 110.75,-14.39 108.86,-16.36 105.96,-16.65 103.07,-16.94 100.39,-16.51 97.72,-16.08 96.17,-14.24 94.61,-12.40 93.08,-10.63 91.55,-8.87 89.58,-6.79 87.61,-4.71 84.85,-3.53 82.09,-2.35 79.30,-2.46 76.51,-2.56 73.72,-3.69 70.93,-4.81 69.24,-6.85 67.56,-8.88 66.26,-10.69 64.95,-12.49 63.27,-14.04 61.59,-15.58 59.36,-15.72 57.13,-15.87 54.22,-15.44 51.30,-15.02 50.35,-12.54 49.39,-10.06 47.92,-7.18 46.44,-4.30 44.20,-2.12 41.96,0.05 39.49,0.96 37.02,1.88 34.58,1.49 32.15,1.10 29.65,-0.30 27.16,-1.71 24.94,-3.91 22.72,-6.12 20.87,-8.68 19.02,-11.24 17.04,-12.17 15.06,-13.09 12.92,-12.40 10.78,-11.71 8.49,-9.62 6.20,-7.54 4.69,-5.41 3.18,-3.27 3.34,-1.79 3.50,-0.31 3.49,0.10 3.48,0.52 3.36,0.93 3.25,1.34 3.04,1.71 2.83,2.08 2.54,2.39 2.25,2.70 1.89,2.93 1.54,3.16 1.14,3.30 0.73,3.44 0.31,3.48 -0.10,3.52 -0.52,3.45 -0.94,3.39 -1.33,3.23 -1.73,3.06 -2.07,2.81 -2.41,2.56 -2.68,2.23 -2.95,1.91 -3.14,1.53 -3.32,1.14 -3.41,0.73 -3.50,0.31 -3.50,0.31 L -3.50,0.31 Z"></path></g></svg>