<?xml version="1.0" standalone="no"?>
<!DOCTYPE svg PUBLIC "-//W3C//DTD SVG 1.1//EN" "http://www.w3.org/Graphics/SVG/1.1/DTD/svg11.dtd">
<svg version="1.1" xmlns="http://www.w3.org/2000/svg" viewBox="0 0 113.5 78" width="227" height="156"><!-- svg-source:excalidraw --><metadata></metadata><defs><style class="style-fonts">
      </style></defs><g transform="translate(26 66) rotate(0 37 -2)" stroke="none"><path fill="#1e1e1e" d="M -0.29,-3.51 Q -0.29,-3.51 1.43,-3.65 3.15,-3.79 5.70,-3.89 8.24,-3.98 10.62,-4.20 12.99,-4.41 15.73,-4.59 18.47,-4.77 21.25,-4.87 24.02,-4.97 27.04,-4.99 30.07,-5.01 32.77,-5.22 35.48,-5.42 38.50,-5.46 41.52,-5.51 44.16,-5.51 46.81,-5.52 49.02,-5.84 51.23,-6.17 53.41,-6.33 55.58,-6.50 57.97,-6.74 60.36,-6.98 63.09,-7.19 65.82,-7.40 68.16,-7.46 70.50,-7.52 72.24,-7.07 73.99,-6.62 74.31,-6.58 74.62,-6.55 74.92,-6.43 75.21,-6.32 75.47,-6.14 75.73,-5.96 75.94,-5.73 76.15,-5.49 76.30,-5.21 76.45,-4.93 76.53,-4.62 76.60,-4.31 76.60,-4.00 76.60,-3.68 76.53,-3.37 76.45,-3.07 76.31,-2.79 76.16,-2.51 75.95,-2.27 75.74,-2.03 75.48,-1.85 75.22,-1.67 74.92,-1.56 74.63,-1.45 74.31,-1.41 74.00,-1.37 73.58,-1.44 73.16,-1.51 72.78,-1.70 72.41,-1.90 72.11,-2.21 71.82,-2.52 71.64,-2.91 71.46,-3.29 71.42,-3.71 71.37,-4.14 71.46,-4.55 71.55,-4.97 71.77,-5.33 71.99,-5.70 72.32,-5.97 72.64,-6.25 73.04,-6.40 73.43,-6.56 73.85,-6.58 74.28,-6.61 74.69,-6.49 75.10,-6.38 75.45,-6.14 75.80,-5.90 76.06,-5.56 76.32,-5.22 76.45,-4.82 76.59,-4.42 76.59,-3.99 76.59,-3.57 76.45,-3.17 76.32,-2.76 76.06,-2.43 75.80,-2.09 75.45,-1.85 75.10,-1.61 74.69,-1.50 74.28,-1.38 73.85,-1.41 73.43,-1.43 73.04,-1.59 72.64,-1.74 72.32,-2.02 71.99,-2.30 71.77,-2.66 71.55,-3.02 71.46,-3.44 71.37,-3.85 71.42,-4.28 71.46,-4.70 71.64,-5.08 71.82,-5.47 72.11,-5.78 72.41,-6.09 72.78,-6.29 73.16,-6.48 73.58,-6.55 74.00,-6.62 73.99,-6.62 73.99,-6.62 74.31,-6.58 74.62,-6.55 74.92,-6.43 75.21,-6.32 75.47,-6.14 75.73,-5.96 75.94,-5.73 76.15,-5.49 76.30,-5.21 76.45,-4.93 76.53,-4.62 76.60,-4.32 76.60,-4.00 76.60,-3.68 76.53,-3.37 76.45,-3.07 76.31,-2.79 76.16,-2.51 75.95,-2.27 75.74,-2.03 75.48,-1.85 75.22,-1.67 74.92,-1.56 74.63,-1.45 74.31,-1.41 74.00,-1.37 71.51,-0.92 69.01,-0.47 66.63,-0.22 64.24,0.02 61.89,0.05 59.54,0.09 57.11,0.32 54.67,0.56 52.30,0.82 49.94,1.09 47.59,1.30 45.24,1.52 42.42,1.53 39.60,1.53 37.06,1.61 34.53,1.69 32.31,1.86 30.08,2.02 27.13,2.04 24.17,2.06 21.70,2.14 19.23,2.23 16.30,2.42 13.37,2.61 10.89,2.83 8.41,3.05 6.07,3.14 3.74,3.22 2.01,3.36 0.29,3.51 -0.13,3.49 -0.55,3.47 -0.96,3.36 -1.37,3.24 -1.74,3.03 -2.10,2.82 -2.41,2.52 -2.72,2.23 -2.95,1.87 -3.17,1.51 -3.31,1.11 -3.44,0.71 -3.48,0.29 -3.51,-0.13 -3.45,-0.55 -3.38,-0.97 -3.22,-1.36 -3.05,-1.75 -2.80,-2.09 -2.54,-2.43 -2.21,-2.70 -1.88,-2.97 -1.50,-3.15 -1.12,-3.33 -0.70,-3.42 -0.29,-3.51 -0.29,-3.51 L -0.29,-3.51 Z"></path></g><g transform="translate(25 67) rotate(0 31.75 -28)" stroke="none"><path fill="#1e1e1e" d="M 0.43,3.49 Q 0.43,3.49 -0.82,3.62 -2.08,3.75 -5.11,2.22 -8.14,0.69 -10.29,-2.87 -12.45,-6.44 -13.27,-8.40 -14.09,-10.37 -15.49,-13.86 -16.89,-17.35 -17.55,-19.91 -18.21,-22.47 -17.36,-25.72 -16.50,-28.97 -14.76,-31.53 -13.03,-34.09 -11.15,-36.17 -9.27,-38.26 -6.64,-39.87 -4.00,-41.48 -1.12,-41.78 1.74,-42.09 4.14,-41.21 6.54,-40.33 9.16,-38.66 11.77,-36.98 10.10,-35.51 8.44,-34.05 8.45,-36.48 8.47,-38.91 8.92,-41.97 9.36,-45.02 11.05,-47.45 12.73,-49.88 14.35,-51.44 15.97,-52.99 18.17,-54.38 20.36,-55.77 22.68,-56.59 25.00,-57.42 27.09,-57.87 29.18,-58.32 32.43,-58.05 35.69,-57.77 38.64,-56.30 41.60,-54.82 43.26,-53.42 44.91,-52.02 46.44,-54.58 47.96,-57.13 49.93,-58.19 51.89,-59.25 54.03,-59.77 56.17,-60.30 58.57,-60.23 60.98,-60.17 63.76,-58.99 66.53,-57.81 68.41,-55.84 70.29,-53.87 71.56,-51.72 72.82,-49.57 73.43,-47.38 74.03,-45.20 73.90,-42.56 73.76,-39.93 72.76,-37.75 71.76,-35.56 70.05,-33.25 68.33,-30.94 67.64,-30.32 66.95,-29.70 66.57,-29.51 66.19,-29.33 65.77,-29.23 65.36,-29.14 64.94,-29.15 64.51,-29.15 64.10,-29.26 63.69,-29.37 63.32,-29.58 62.95,-29.78 62.64,-30.07 62.32,-30.36 62.09,-30.71 61.85,-31.07 61.71,-31.47 61.57,-31.87 61.53,-32.29 61.48,-32.71 61.54,-33.13 61.60,-33.55 61.76,-33.95 61.92,-34.34 62.17,-34.69 62.42,-35.03 62.74,-35.31 63.06,-35.58 65.15,-36.46 67.24,-37.35 70.53,-37.24 73.82,-37.13 76.04,-34.84 78.25,-32.55 79.38,-30.03 80.50,-27.50 81.03,-25.34 81.56,-23.18 81.77,-20.88 81.99,-18.58 81.52,-16.47 81.05,-14.36 79.71,-11.73 78.37,-9.11 76.55,-8.36 74.73,-7.62 74.53,-7.37 74.34,-7.12 74.09,-6.93 73.84,-6.74 73.55,-6.61 73.26,-6.48 72.94,-6.43 72.63,-6.37 72.32,-6.39 72.00,-6.42 71.70,-6.51 71.40,-6.61 71.13,-6.77 70.86,-6.94 70.64,-7.17 70.41,-7.39 70.25,-7.66 70.09,-7.94 70.00,-8.24 69.91,-8.54 69.89,-8.86 69.87,-9.17 69.93,-9.49 69.99,-9.80 70.13,-10.08 70.26,-10.37 70.31,-10.44 70.35,-10.52 70.65,-10.82 70.95,-11.12 71.33,-11.31 71.71,-11.50 72.13,-11.56 72.55,-11.62 72.97,-11.54 73.39,-11.47 73.76,-11.26 74.13,-11.05 74.42,-10.74 74.70,-10.42 74.87,-10.03 75.04,-9.64 75.08,-9.22 75.11,-8.80 75.01,-8.38 74.91,-7.97 74.69,-7.61 74.46,-7.25 74.13,-6.98 73.80,-6.72 73.40,-6.57 73.00,-6.42 72.58,-6.40 72.15,-6.39 71.75,-6.51 71.34,-6.64 70.99,-6.88 70.65,-7.13 70.40,-7.47 70.15,-7.82 70.02,-8.22 69.89,-8.63 69.90,-9.05 69.91,-9.48 70.06,-9.88 70.20,-10.28 70.47,-10.61 70.73,-10.94 71.09,-11.17 71.45,-11.40 71.86,-11.51 72.27,-11.61 72.69,-11.58 73.12,-11.55 73.51,-11.38 73.90,-11.22 74.22,-10.93 74.53,-10.65 74.75,-10.28 74.96,-9.91 75.04,-9.50 75.12,-9.08 75.07,-8.66 75.01,-8.24 74.87,-7.93 74.73,-7.62 74.53,-7.37 74.34,-7.12 74.09,-6.93 73.84,-6.74 73.55,-6.61 73.26,-6.48 72.94,-6.43 72.63,-6.37 72.32,-6.39 72.00,-6.42 71.70,-6.51 71.40,-6.61 71.13,-6.77 70.86,-6.94 70.64,-7.17 70.41,-7.39 70.25,-7.66 70.09,-7.94 70.00,-8.24 69.91,-8.54 69.89,-8.86 69.87,-9.17 69.93,-9.49 69.99,-9.80 70.13,-10.08 70.26,-10.37 71.12,-11.25 71.99,-12.13 73.27,-14.60 74.55,-17.07 74.65,-19.22 74.75,-21.37 73.90,-24.13 73.05,-26.89 72.07,-28.92 71.10,-30.95 69.02,-30.33 66.95,-29.70 66.57,-29.52 66.19,-29.33 65.78,-29.23 65.36,-29.14 64.94,-29.15 64.51,-29.15 64.10,-29.26 63.69,-29.37 63.32,-29.58 62.95,-29.78 62.64,-30.07 62.32,-30.36 62.09,-30.71 61.85,-31.07 61.71,-31.47 61.57,-31.87 61.53,-32.29 61.48,-32.71 61.54,-33.13 61.60,-33.55 61.76,-33.95 61.92,-34.34 62.17,-34.69 62.42,-35.03 62.74,-35.30 63.06,-35.58 63.51,-36.09 63.96,-36.60 65.13,-38.42 66.31,-40.25 66.52,-42.71 66.73,-45.17 65.78,-47.30 64.82,-49.42 63.30,-51.03 61.78,-52.64 59.45,-52.98 57.11,-53.32 54.64,-52.40 52.17,-51.48 50.37,-49.99 48.58,-48.51 46.83,-47.09 45.07,-45.66 42.59,-46.26 40.12,-46.86 38.18,-48.41 36.24,-49.95 33.86,-50.68 31.48,-51.41 29.27,-51.04 27.06,-50.68 24.59,-49.68 22.13,-48.69 20.21,-47.13 18.30,-45.57 16.89,-43.87 15.49,-42.17 15.50,-39.79 15.51,-37.42 15.46,-35.20 15.40,-32.98 13.71,-31.33 12.02,-29.69 9.70,-30.58 7.38,-31.47 5.53,-32.68 3.67,-33.90 1.29,-34.49 -1.08,-35.08 -3.49,-33.44 -5.89,-31.81 -7.43,-29.88 -8.96,-27.96 -10.00,-25.07 -11.04,-22.19 -10.08,-19.44 -9.12,-16.70 -7.61,-13.10 -6.10,-9.50 -4.31,-6.34 -2.51,-3.17 -1.47,-3.33 -0.43,-3.49 -0.01,-3.49 0.41,-3.49 0.82,-3.39 1.23,-3.29 1.61,-3.10 1.99,-2.90 2.30,-2.62 2.62,-2.34 2.87,-1.99 3.11,-1.64 3.26,-1.25 3.41,-0.85 3.46,-0.43 3.52,-0.01 3.47,0.40 3.42,0.83 3.27,1.22 3.12,1.62 2.88,1.97 2.64,2.32 2.32,2.60 2.01,2.89 1.63,3.09 1.26,3.28 0.84,3.39 0.43,3.49 0.43,3.49 L 0.43,3.49 Z"></path></g></svg>