<?xml version="1.0" standalone="no"?>
<!DOCTYPE svg PUBLIC "-//W3C//DTD SVG 1.1//EN" "http://www.w3.org/Graphics/SVG/1.1/DTD/svg11.dtd">
<svg version="1.1" xmlns="http://www.w3.org/2000/svg" viewBox="0 0 123 65.5" width="246" height="131"><!-- svg-source:excalidraw --><metadata></metadata><defs><style class="style-fonts">
      </style></defs><g transform="translate(33 18) rotate(0 -7.25 18.5)" stroke="none"><path fill="#1e1e1e" d="M 3.02,1.81 Q 3.02,1.81 1.72,3.96 0.43,6.12 -1.74,9.08 -3.91,12.05 -5.45,13.55 -6.99,15.05 -8.64,16.52 -10.28,18.00 -12.61,19.86 -14.94,21.73 -16.45,23.22 -17.96,24.72 -19.09,26.36 -20.22,27.99 -20.56,28.25 -20.89,28.51 -21.28,28.69 -21.66,28.86 -22.08,28.94 -22.50,29.02 -22.92,28.99 -23.35,28.97 -23.75,28.84 -24.16,28.72 -24.52,28.50 -24.88,28.28 -25.18,27.98 -25.49,27.68 -25.71,27.31 -25.93,26.95 -26.05,26.55 -26.18,26.14 -26.21,25.72 -26.23,25.29 -26.16,24.88 -26.08,24.46 -25.91,24.07 -25.73,23.68 -25.47,23.35 -25.21,23.01 -22.73,22.50 -20.25,21.98 -17.42,22.88 -14.59,23.77 -11.86,24.99 -9.14,26.20 -6.59,27.31 -4.05,28.42 -2.07,29.61 -0.09,30.79 1.97,31.54 4.03,32.28 6.45,32.84 8.87,33.39 9.17,33.48 9.48,33.56 9.76,33.71 10.03,33.87 10.27,34.08 10.50,34.30 10.67,34.56 10.85,34.83 10.95,35.12 11.06,35.42 11.09,35.74 11.12,36.05 11.08,36.37 11.03,36.68 10.91,36.97 10.79,37.27 10.61,37.52 10.42,37.78 10.18,37.98 9.94,38.19 9.66,38.33 9.37,38.47 9.06,38.54 8.75,38.61 8.44,38.60 8.12,38.59 7.09,36.80 6.06,35.01 6.28,34.65 6.50,34.28 6.83,34.01 7.15,33.74 7.55,33.58 7.95,33.43 8.37,33.41 8.79,33.39 9.20,33.50 9.61,33.62 9.96,33.86 10.31,34.10 10.57,34.44 10.82,34.78 10.96,35.18 11.09,35.59 11.09,36.01 11.08,36.44 10.95,36.84 10.81,37.24 10.55,37.58 10.29,37.91 9.94,38.15 9.58,38.39 9.17,38.50 8.76,38.61 8.34,38.58 7.91,38.56 7.52,38.40 7.13,38.24 6.80,37.96 6.48,37.68 6.27,37.32 6.05,36.95 5.96,36.54 5.87,36.12 5.92,35.70 5.97,35.28 6.15,34.89 6.33,34.51 6.62,34.20 6.92,33.89 7.30,33.70 7.67,33.50 8.09,33.43 8.51,33.37 8.93,33.44 9.35,33.51 9.72,33.71 10.10,33.91 10.39,34.22 10.68,34.53 10.85,34.92 11.03,35.31 11.07,35.73 11.12,36.15 9.99,34.77 8.87,33.39 9.17,33.48 9.48,33.56 9.76,33.71 10.03,33.87 10.27,34.08 10.50,34.30 10.67,34.56 10.85,34.82 10.95,35.12 11.06,35.42 11.09,35.74 11.12,36.05 11.08,36.37 11.03,36.68 10.91,36.97 10.79,37.27 10.61,37.52 10.42,37.78 10.18,37.98 9.94,38.19 9.66,38.33 9.37,38.47 9.06,38.54 8.75,38.61 8.44,38.60 8.12,38.60 6.75,39.21 5.38,39.82 2.79,39.12 0.20,38.42 -2.40,37.32 -5.02,36.22 -7.55,34.76 -10.09,33.30 -13.01,32.06 -15.92,30.82 -18.07,29.40 -20.22,27.99 -20.56,28.25 -20.89,28.51 -21.28,28.69 -21.66,28.86 -22.08,28.94 -22.50,29.02 -22.92,28.99 -23.35,28.97 -23.75,28.84 -24.16,28.72 -24.52,28.50 -24.88,28.28 -25.18,27.98 -25.48,27.68 -25.71,27.31 -25.93,26.95 -26.05,26.55 -26.18,26.14 -26.21,25.72 -26.23,25.29 -26.16,24.88 -26.08,24.46 -25.91,24.07 -25.73,23.68 -25.47,23.35 -25.21,23.01 -24.33,21.66 -23.45,20.31 -21.32,18.21 -19.19,16.11 -17.09,14.43 -14.98,12.75 -12.19,10.18 -9.39,7.61 -7.50,5.05 -5.60,2.49 -4.31,0.34 -3.02,-1.81 -2.75,-2.14 -2.49,-2.48 -2.16,-2.74 -1.83,-3.00 -1.44,-3.18 -1.05,-3.35 -0.64,-3.43 -0.22,-3.51 0.19,-3.49 0.62,-3.46 1.02,-3.34 1.43,-3.21 1.79,-2.99 2.16,-2.77 2.46,-2.48 2.76,-2.18 2.98,-1.81 3.20,-1.45 3.33,-1.05 3.46,-0.64 3.48,-0.22 3.51,0.20 3.44,0.61 3.36,1.03 3.19,1.42 3.02,1.81 3.02,1.81 L 3.02,1.81 Z"></path></g><g transform="translate(75.5 11) rotate(0 -9.25 19.5)" stroke="none"><path fill="#1e1e1e" d="M 3.15,1.57 Q 3.15,1.57 2.14,3.58 1.13,5.59 0.18,7.91 -0.76,10.23 -1.64,12.19 -2.52,14.14 -4.33,17.64 -6.14,21.13 -7.36,23.17 -8.57,25.20 -10.13,27.70 -11.69,30.20 -12.69,32.67 -13.69,35.15 -14.84,37.23 -16.00,39.32 -16.14,39.60 -16.27,39.89 -16.47,40.14 -16.67,40.38 -16.92,40.57 -17.17,40.77 -17.46,40.89 -17.76,41.02 -18.07,41.07 -18.38,41.12 -18.70,41.09 -19.01,41.07 -19.31,40.97 -19.61,40.87 -19.88,40.70 -20.15,40.54 -20.37,40.31 -20.59,40.08 -20.75,39.81 -20.91,39.53 -21.00,39.23 -21.09,38.92 -21.10,38.61 -21.11,38.29 -21.05,37.98 -20.99,37.67 -20.62,37.10 -20.24,36.54 -19.89,36.31 -19.53,36.08 -19.11,35.98 -18.70,35.88 -18.28,35.91 -17.85,35.95 -17.46,36.12 -17.07,36.29 -16.76,36.57 -16.44,36.85 -16.24,37.23 -16.03,37.60 -15.95,38.01 -15.87,38.43 -15.93,38.85 -15.99,39.27 -16.18,39.65 -16.37,40.03 -16.67,40.33 -16.97,40.63 -17.35,40.82 -17.73,41.01 -18.15,41.06 -18.57,41.12 -18.99,41.04 -19.41,40.96 -19.78,40.75 -20.15,40.54 -20.43,40.22 -20.71,39.90 -20.88,39.51 -21.05,39.12 -21.08,38.70 -21.11,38.27 -21.01,37.86 -20.91,37.45 -20.68,37.09 -20.45,36.74 -20.11,36.47 -19.78,36.21 -19.38,36.06 -18.98,35.91 -18.56,35.90 -18.13,35.89 -17.73,36.02 -17.32,36.15 -16.98,36.39 -16.63,36.64 -16.39,36.99 -16.14,37.33 -16.02,37.74 -15.89,38.15 -15.90,38.57 -15.92,39.00 -16.06,39.40 -16.21,39.79 -16.11,39.56 -16.00,39.32 -16.14,39.60 -16.27,39.89 -16.47,40.14 -16.67,40.38 -16.92,40.57 -17.17,40.77 -17.46,40.89 -17.76,41.02 -18.07,41.07 -18.38,41.12 -18.70,41.09 -19.01,41.07 -19.31,40.97 -19.61,40.87 -19.88,40.70 -20.15,40.54 -20.37,40.31 -20.59,40.08 -20.75,39.81 -20.91,39.53 -21.00,39.23 -21.09,38.93 -21.10,38.61 -21.11,38.29 -21.05,37.98 -20.99,37.67 -20.69,35.34 -20.40,33.01 -19.61,30.90 -18.82,28.79 -17.17,26.03 -15.53,23.26 -14.50,21.40 -13.47,19.53 -12.01,17.21 -10.54,14.90 -8.91,11.22 -7.27,7.55 -6.21,5.00 -5.16,2.45 -4.15,0.43 -3.15,-1.57 -2.91,-1.92 -2.68,-2.28 -2.36,-2.57 -2.05,-2.85 -1.68,-3.06 -1.31,-3.26 -0.90,-3.37 -0.49,-3.48 -0.06,-3.49 0.35,-3.50 0.76,-3.41 1.18,-3.31 1.56,-3.12 1.94,-2.93 2.26,-2.66 2.59,-2.38 2.83,-2.04 3.08,-1.69 3.24,-1.30 3.40,-0.90 3.46,-0.48 3.52,-0.06 3.47,0.35 3.43,0.77 3.29,1.17 3.15,1.57 3.15,1.57 L 3.15,1.57 Z"></path></g><g transform="translate(90.5 18.5) rotate(0 10.5 15.75)" stroke="none"><path fill="#1e1e1e" d="M 1.81,-3.02 Q 1.81,-3.02 3.24,-2.15 4.68,-1.29 6.73,-0.18 8.77,0.93 10.60,2.03 12.42,3.14 14.54,4.13 16.66,5.12 18.54,6.17 20.42,7.21 22.47,10.63 24.51,14.04 22.66,15.40 20.80,16.76 18.64,18.00 16.48,19.24 14.82,20.58 13.17,21.92 11.60,23.56 10.04,25.20 8.23,27.32 6.41,29.44 3.58,31.19 0.76,32.94 0.50,33.13 0.24,33.31 -0.05,33.42 -0.34,33.54 -0.65,33.58 -0.97,33.62 -1.28,33.59 -1.60,33.55 -1.89,33.44 -2.19,33.33 -2.45,33.16 -2.72,32.98 -2.93,32.74 -3.14,32.51 -3.29,32.23 -3.44,31.95 -3.52,31.65 -3.60,31.34 -3.60,31.02 -3.61,30.71 -3.53,30.40 -3.46,30.09 -3.32,29.81 -3.17,29.53 -2.96,29.29 -2.76,29.05 -2.93,29.24 -3.11,29.43 -2.80,29.14 -2.50,28.84 -2.12,28.66 -1.73,28.47 -1.31,28.42 -0.89,28.37 -0.47,28.46 -0.06,28.54 0.30,28.76 0.67,28.97 0.95,29.29 1.23,29.61 1.39,30.00 1.55,30.40 1.58,30.82 1.61,31.24 1.50,31.65 1.39,32.06 1.16,32.42 0.93,32.77 0.59,33.04 0.26,33.30 -0.13,33.44 -0.53,33.58 -0.96,33.59 -1.38,33.59 -1.79,33.46 -2.19,33.33 -2.54,33.08 -2.88,32.83 -3.12,32.48 -3.36,32.13 -3.48,31.72 -3.60,31.31 -3.58,30.89 -3.57,30.47 -3.42,30.07 -3.26,29.67 -2.99,29.34 -2.72,29.02 -2.36,28.79 -2.00,28.57 -1.59,28.47 -1.17,28.37 -0.75,28.41 -0.33,28.45 0.05,28.63 0.44,28.80 0.75,29.09 1.06,29.38 1.27,29.75 1.47,30.12 1.55,30.54 1.62,30.96 1.56,31.38 1.50,31.80 1.13,32.37 0.76,32.94 0.50,33.13 0.24,33.31 -0.04,33.42 -0.34,33.54 -0.65,33.58 -0.97,33.62 -1.28,33.59 -1.60,33.55 -1.89,33.44 -2.19,33.33 -2.45,33.16 -2.72,32.98 -2.93,32.74 -3.14,32.51 -3.29,32.23 -3.44,31.95 -3.52,31.65 -3.60,31.34 -3.60,31.02 -3.61,30.71 -3.53,30.40 -3.46,30.09 -3.32,29.81 -3.17,29.53 -2.96,29.29 -2.76,29.05 -1.68,27.63 -0.61,26.21 1.38,24.13 3.37,22.05 5.23,20.01 7.09,17.98 9.25,16.18 11.41,14.38 13.64,12.98 15.87,11.58 18.05,10.51 20.22,9.44 20.22,11.89 20.22,14.34 17.71,13.31 15.21,12.29 13.01,11.22 10.80,10.16 8.16,8.67 5.53,7.18 3.29,5.96 1.06,4.74 -0.37,3.88 -1.81,3.02 -2.14,2.75 -2.48,2.49 -2.74,2.16 -3.00,1.83 -3.18,1.44 -3.35,1.05 -3.43,0.64 -3.51,0.22 -3.49,-0.19 -3.46,-0.62 -3.34,-1.02 -3.21,-1.43 -2.99,-1.79 -2.77,-2.16 -2.48,-2.46 -2.18,-2.76 -1.81,-2.98 -1.45,-3.20 -1.05,-3.33 -0.64,-3.46 -0.22,-3.48 0.20,-3.51 0.61,-3.44 1.03,-3.36 1.42,-3.19 1.81,-3.02 1.81,-3.02 L 1.81,-3.02 Z"></path></g></svg>