<?xml version="1.0" standalone="no"?>
<!DOCTYPE svg PUBLIC "-//W3C//DTD SVG 1.1//EN" "http://www.w3.org/Graphics/SVG/1.1/DTD/svg11.dtd">
<svg version="1.1" xmlns="http://www.w3.org/2000/svg" viewBox="0 0 73 22.5" width="146" height="45"><!-- svg-source:excalidraw --><metadata></metadata><defs><style class="style-fonts">
      </style></defs><g transform="translate(11 10) rotate(0 -0.5 0.5)" stroke="none"><path fill="#1e1e1e" d="M 3.36,-1.04 Q 3.36,-1.04 3.41,-0.20 3.46,0.63 3.11,1.40 2.77,2.17 2.10,2.69 1.44,3.21 0.61,3.36 -0.21,3.51 -1.01,3.26 -1.82,3.01 -2.41,2.41 -3.01,1.82 -3.26,1.01 -3.51,0.21 -3.36,-0.61 -3.21,-1.44 -2.69,-2.10 -2.17,-2.77 -1.40,-3.11 -0.63,-3.46 0.20,-3.41 1.04,-3.36 1.76,-2.92 2.49,-2.49 2.92,-1.76 L 3.36,-1.04 Z"></path></g><g transform="translate(27 11.5) rotate(0 0.5 -0.5)" stroke="none"><path fill="#1e1e1e" d="M 3.36,-1.04 Q 3.36,-1.04 3.41,-0.20 3.46,0.63 3.11,1.40 2.77,2.17 2.10,2.69 1.44,3.21 0.61,3.36 -0.21,3.51 -1.01,3.26 -1.82,3.01 -2.41,2.41 -3.01,1.82 -3.26,1.01 -3.51,0.21 -3.36,-0.61 -3.21,-1.44 -2.69,-2.10 -2.17,-2.77 -1.40,-3.11 -0.63,-3.46 0.20,-3.41 1.04,-3.36 1.76,-2.92 2.49,-2.49 2.92,-1.76 L 3.36,-1.04 Z"></path></g><g transform="translate(44.5 12) rotate(0 -0.75 0.25)" stroke="none"><path fill="#1e1e1e" d="M 3.36,-1.04 Q 3.36,-1.04 3.41,-0.20 3.46,0.63 3.11,1.40 2.77,2.17 2.10,2.69 1.44,3.21 0.61,3.36 -0.21,3.51 -1.01,3.26 -1.82,3.01 -2.41,2.41 -3.01,1.82 -3.26,1.01 -3.51,0.21 -3.36,-0.61 -3.21,-1.44 -2.69,-2.10 -2.17,-2.77 -1.40,-3.11 -0.63,-3.46 0.20,-3.41 1.04,-3.36 1.76,-2.92 2.49,-2.49 2.92,-1.76 L 3.36,-1.04 Z"></path></g><g transform="translate(63 11) rotate(0 -0.25 -0.25)" stroke="none"><path fill="#1e1e1e" d="M 3.36,-1.04 Q 3.36,-1.04 3.41,-0.20 3.46,0.63 3.11,1.40 2.77,2.17 2.10,2.69 1.44,3.21 0.61,3.36 -0.21,3.51 -1.01,3.26 -1.82,3.01 -2.41,2.41 -3.01,1.82 -3.26,1.01 -3.51,0.21 -3.36,-0.61 -3.21,-1.44 -2.69,-2.10 -2.17,-2.77 -1.40,-3.11 -0.63,-3.46 0.20,-3.41 1.04,-3.36 1.76,-2.92 2.49,-2.49 2.92,-1.76 L 3.36,-1.04 Z"></path></g></svg>