<?xml version="1.0" standalone="no"?>
<!DOCTYPE svg PUBLIC "-//W3C//DTD SVG 1.1//EN" "http://www.w3.org/Graphics/SVG/1.1/DTD/svg11.dtd">
<svg version="1.1" xmlns="http://www.w3.org/2000/svg" viewBox="0 0 59.5 45" width="119" height="90"><!-- svg-source:excalidraw --><metadata></metadata><defs><style class="style-fonts">
      </style></defs><g transform="translate(13.5 25) rotate(0 16.25 -2.25)" stroke="none"><path fill="#1e1e1e" d="M 1.57,-3.15 Q 1.57,-3.15 1.72,-3.03 1.87,-2.91 6.01,-3.68 10.14,-4.45 13.11,-4.89 16.07,-5.33 18.89,-5.80 21.70,-6.27 25.35,-6.90 29.00,-7.53 32.38,-7.57 35.76,-7.61 36.19,-7.58 36.61,-7.55 37.00,-7.38 37.40,-7.22 37.71,-6.94 38.03,-6.65 38.24,-6.29 38.45,-5.92 38.54,-5.50 38.62,-5.08 38.57,-4.66 38.51,-4.24 38.32,-3.86 38.14,-3.48 37.84,-3.17 37.54,-2.87 37.16,-2.68 36.78,-2.49 36.36,-2.43 35.94,-2.37 35.52,-2.45 35.10,-2.52 34.73,-2.73 34.36,-2.94 34.08,-3.25 33.79,-3.57 33.62,-3.96 33.45,-4.35 33.41,-4.77 33.38,-5.19 33.48,-5.60 33.58,-6.02 33.80,-6.38 34.03,-6.74 34.36,-7.01 34.69,-7.27 35.09,-7.42 35.48,-7.57 35.91,-7.59 36.33,-7.60 36.74,-7.48 37.15,-7.36 37.49,-7.11 37.84,-6.86 38.09,-6.52 38.34,-6.18 38.47,-5.77 38.60,-5.37 38.59,-4.94 38.58,-4.52 38.43,-4.12 38.29,-3.72 38.03,-3.38 37.76,-3.05 37.40,-2.82 37.05,-2.59 36.64,-2.48 36.22,-2.38 36.22,-2.38 36.23,-2.38 33.24,-1.49 30.26,-0.60 26.56,0.03 22.86,0.67 19.98,1.15 17.10,1.63 14.11,2.08 11.11,2.52 8.47,2.89 5.83,3.25 2.55,3.37 -0.72,3.49 -1.15,3.32 -1.57,3.15 -1.92,2.91 -2.28,2.68 -2.57,2.36 -2.85,2.05 -3.06,1.68 -3.26,1.31 -3.37,0.90 -3.48,0.49 -3.49,0.06 -3.50,-0.35 -3.41,-0.76 -3.31,-1.18 -3.12,-1.56 -2.93,-1.94 -2.66,-2.26 -2.38,-2.59 -2.04,-2.83 -1.69,-3.08 -1.30,-3.24 -0.90,-3.40 -0.48,-3.46 -0.06,-3.52 0.35,-3.47 0.77,-3.43 1.17,-3.29 1.57,-3.15 1.57,-3.15 L 1.57,-3.15 Z"></path></g><g transform="translate(27.5 10) rotate(0 1.75 12.5)" stroke="none"><path fill="#1e1e1e" d="M 3.52,0 Q 3.52,0 3.52,2.29 3.52,4.59 3.96,7.54 4.41,10.48 4.78,12.85 5.15,15.23 5.74,18.04 6.34,20.86 6.94,21.87 7.55,22.88 7.58,23.19 7.62,23.50 7.58,23.82 7.54,24.13 7.43,24.43 7.32,24.72 7.14,24.98 6.95,25.24 6.72,25.45 6.48,25.66 6.20,25.81 5.92,25.95 5.61,26.03 5.30,26.10 4.99,26.10 4.67,26.10 4.36,26.02 4.05,25.95 3.78,25.80 3.50,25.65 3.26,25.44 3.02,25.23 2.84,24.97 2.66,24.71 2.55,24.41 2.44,24.11 3.12,22.64 3.80,21.16 4.20,21.03 4.61,20.90 5.03,20.90 5.46,20.91 5.86,21.05 6.26,21.19 6.59,21.45 6.93,21.72 7.16,22.07 7.39,22.43 7.50,22.84 7.61,23.25 7.58,23.67 7.55,24.10 7.39,24.49 7.23,24.88 6.95,25.20 6.67,25.52 6.30,25.73 5.93,25.95 5.52,26.03 5.10,26.12 4.68,26.07 4.26,26.02 3.87,25.83 3.49,25.65 3.19,25.35 2.88,25.05 2.69,24.68 2.49,24.30 2.43,23.88 2.37,23.46 2.44,23.04 2.52,22.62 2.72,22.25 2.93,21.88 3.24,21.59 3.55,21.30 3.94,21.13 4.33,20.95 4.75,20.91 5.17,20.87 5.59,20.97 6.00,21.07 6.36,21.29 6.72,21.52 6.99,21.85 7.26,22.17 7.42,22.57 7.57,22.97 7.58,23.39 7.60,23.82 7.48,24.22 7.36,24.63 7.12,24.98 6.88,25.33 7.21,24.10 7.55,22.87 7.58,23.19 7.62,23.50 7.58,23.82 7.54,24.13 7.43,24.43 7.32,24.72 7.14,24.98 6.96,25.24 6.72,25.45 6.48,25.66 6.20,25.81 5.92,25.95 5.61,26.03 5.30,26.10 4.99,26.10 4.67,26.10 4.36,26.02 4.06,25.95 3.78,25.80 3.50,25.65 3.26,25.44 3.02,25.23 2.84,24.97 2.67,24.71 2.55,24.41 2.44,24.11 0.90,22.94 -0.64,21.76 -1.20,19.15 -1.76,16.54 -2.10,14.31 -2.44,12.07 -2.98,8.33 -3.52,4.60 -3.52,2.30 -3.52,0 -3.47,-0.42 -3.41,-0.84 -3.26,-1.23 -3.11,-1.63 -2.87,-1.98 -2.63,-2.33 -2.31,-2.61 -2.00,-2.89 -1.62,-3.09 -1.24,-3.29 -0.83,-3.39 -0.42,-3.49 0.00,-3.49 0.42,-3.49 0.83,-3.39 1.24,-3.29 1.62,-3.09 2.00,-2.89 2.31,-2.61 2.63,-2.33 2.87,-1.98 3.11,-1.63 3.26,-1.23 3.41,-0.84 3.47,-0.42 3.52,0.00 3.52,0.00 L 3.52,0 Z"></path></g></svg>