<?xml version="1.0" standalone="no"?>
<!DOCTYPE svg PUBLIC "-//W3C//DTD SVG 1.1//EN" "http://www.w3.org/Graphics/SVG/1.1/DTD/svg11.dtd">
<svg version="1.1" xmlns="http://www.w3.org/2000/svg" viewBox="0 0 103 111" width="206" height="222"><!-- svg-source:excalidraw --><metadata></metadata><defs><style class="style-fonts">
      </style></defs><g transform="translate(47 57.5) rotate(0 2.75 0.5)" stroke="none"><path fill="#1e1e1e" d="M -2.49,-2.49 Q -2.49,-2.49 -1.47,-3.50 -0.45,-4.51 2.05,-5.65 4.57,-6.79 6.85,-5.23 9.13,-3.68 8.97,-1.31 8.82,1.06 7.02,2.57 5.23,4.09 2.82,4.06 0.42,4.03 -0.99,2.27 -2.41,0.51 -1.90,-1.56 -1.40,-3.63 0.89,-5.16 3.18,-6.69 5.25,-6.00 7.31,-5.31 8.13,-2.90 8.94,-0.50 6.93,2.00 4.93,4.51 2.27,4.44 -0.39,4.36 -1.80,2.02 -3.21,-0.31 -2.29,-2.59 -1.36,-4.87 0.51,-6.00 2.39,-7.13 5.03,-5.97 7.67,-4.81 7.88,-1.87 8.08,1.06 6.74,2.85 5.40,4.65 2.62,5.31 -0.15,5.97 -1.71,3.99 -3.27,2.01 -2.88,-0.20 -2.49,-2.42 -0.04,-4.28 2.40,-6.14 5.19,-5.16 7.97,-4.18 8.26,-1.22 8.54,1.72 6.32,3.46 4.11,5.20 1.92,4.59 -0.25,3.97 -0.94,1.33 -1.62,-1.29 -0.37,-3.52 0.87,-5.75 3.18,-6.36 5.48,-6.97 7.27,-5.71 9.06,-4.44 9.26,-1.49 9.45,1.45 7.60,3.04 5.74,4.63 3.56,4.80 1.38,4.97 -0.59,2.86 -2.56,0.75 -1.07,-1.57 0.41,-3.90 3.53,-3.90 6.65,-3.90 7.59,-1.30 8.54,1.28 7.30,3.37 6.07,5.46 3.91,6.76 1.76,8.06 -0.91,6.45 -3.58,4.83 -3.13,1.84 -2.68,-1.14 -2.37,-1.37 -2.07,-1.61 -1.84,-1.83 -1.62,-2.06 -1.35,-2.22 -1.08,-2.39 -0.78,-2.48 -0.48,-2.58 -0.16,-2.60 0.15,-2.62 0.46,-2.56 0.77,-2.50 1.06,-2.38 1.35,-2.25 1.60,-2.05 1.85,-1.86 2.04,-1.61 2.24,-1.36 2.37,-1.07 2.50,-0.78 2.56,-0.47 2.62,-0.16 2.60,0.15 2.58,0.46 2.49,0.76 2.39,1.07 2.23,1.34 2.07,1.61 0.30,1.89 -1.46,2.18 -1.77,1.88 -2.08,1.59 -2.28,1.22 -2.48,0.84 -2.55,0.43 -2.62,0.01 -2.55,-0.40 -2.49,-0.82 -2.29,-1.20 -2.09,-1.58 -1.79,-1.87 -1.48,-2.16 -1.09,-2.34 -0.71,-2.52 -0.29,-2.57 0.13,-2.62 0.54,-2.53 0.96,-2.44 1.32,-2.22 1.69,-2.00 1.96,-1.68 2.24,-1.36 2.40,-0.96 2.56,-0.57 2.58,-0.15 2.61,0.27 2.50,0.68 2.38,1.09 2.15,1.44 1.91,1.79 1.57,2.05 1.23,2.31 0.83,2.45 0.43,2.59 0.01,2.59 -0.41,2.59 -0.81,2.45 -1.22,2.32 -1.56,2.06 -1.89,1.81 -2.13,1.46 -2.37,1.11 -2.49,0.70 -2.61,0.29 -2.58,-0.12 -2.56,-0.55 -2.41,-0.94 -2.25,-1.34 -1.98,-1.67 -1.70,-1.99 -1.34,-2.21 -0.98,-2.43 -0.56,-2.52 -0.15,-2.62 0.27,-2.57 0.69,-2.53 -0.68,-2.07 -2.07,-1.61 -1.84,-1.83 -1.62,-2.06 -1.35,-2.22 -1.08,-2.39 -0.78,-2.48 -0.48,-2.58 -0.16,-2.60 0.15,-2.62 0.46,-2.56 0.77,-2.50 1.06,-2.38 1.35,-2.25 1.60,-2.05 1.85,-1.86 2.04,-1.61 2.24,-1.36 2.37,-1.07 2.50,-0.78 2.56,-0.47 2.62,-0.16 2.60,0.15 2.58,0.46 2.49,0.76 2.39,1.07 2.23,1.34 2.07,1.61 1.21,1.51 0.35,1.40 2.72,0.67 5.10,-0.06 2.71,-0.24 0.32,-0.42 2.40,0.03 4.48,0.49 3.48,1.49 2.49,2.49 2.15,2.75 1.82,3.01 1.43,3.18 1.04,3.36 0.63,3.43 0.21,3.51 -0.21,3.49 -0.63,3.46 -1.04,3.33 -1.44,3.21 -1.80,2.99 -2.17,2.77 -2.47,2.47 -2.77,2.17 -2.99,1.80 -3.21,1.44 -3.33,1.04 -3.46,0.63 -3.49,0.21 -3.51,-0.21 -3.43,-0.63 -3.36,-1.04 -3.18,-1.43 -3.01,-1.82 -2.75,-2.15 -2.49,-2.49 -2.49,-2.49 L -2.49,-2.49 Z"></path></g><g transform="translate(44.5 40.5) rotate(0 3.25 -14.25)" stroke="none"><path fill="#1e1e1e" d="M -3.25,1.35 Q -3.25,1.35 -3.97,-0.37 -4.68,-2.09 -5.54,-4.94 -6.39,-7.78 -7.35,-10.40 -8.30,-13.01 -8.96,-15.51 -9.62,-18.00 -9.81,-20.39 -10.01,-22.78 -9.73,-25.51 -9.46,-28.24 -8.04,-29.82 -6.63,-31.41 -4.46,-32.37 -2.29,-33.34 0.25,-33.68 2.80,-34.01 5.88,-33.72 8.96,-33.42 11.09,-31.23 13.22,-29.04 14.48,-26.72 15.74,-24.40 16.13,-22.21 16.51,-20.01 16.51,-17.71 16.52,-15.40 16.52,-13.18 16.52,-10.96 15.50,-8.53 14.48,-6.09 13.12,-4.25 11.76,-2.42 10.28,-0.86 8.81,0.68 7.29,2.17 5.78,3.66 4.90,4.31 4.03,4.96 3.62,5.08 3.21,5.19 2.79,5.21 2.36,5.23 1.95,5.14 1.53,5.06 1.15,4.87 0.77,4.69 0.44,4.42 0.11,4.15 -0.14,3.81 -0.39,3.47 -0.56,3.08 -0.72,2.69 -0.79,2.27 -0.86,1.85 -0.82,1.43 -0.79,1.01 -0.65,0.61 -0.52,0.20 -0.29,-0.15 -0.07,-0.50 0.23,-0.80 0.54,-1.09 0.91,-1.30 1.27,-1.52 -0.07,0.34 -1.42,2.20 -1.74,1.91 -2.05,1.63 -2.26,1.26 -2.47,0.89 -2.54,0.47 -2.62,0.05 -2.56,-0.36 -2.50,-0.78 -2.31,-1.16 -2.12,-1.54 -1.82,-1.84 -1.51,-2.14 -1.13,-2.32 -0.75,-2.51 -0.33,-2.57 0.08,-2.62 0.50,-2.54 0.92,-2.45 1.29,-2.24 1.65,-2.03 1.94,-1.71 2.22,-1.40 2.38,-1.00 2.55,-0.61 2.58,-0.19 2.61,0.23 2.51,0.64 2.40,1.05 2.17,1.41 1.94,1.76 1.61,2.03 1.27,2.29 0.87,2.43 0.47,2.58 0.05,2.59 -0.37,2.60 -0.77,2.47 -1.18,2.34 -1.52,2.09 -1.86,1.84 -2.11,1.49 -2.36,1.15 -2.48,0.74 -2.60,0.33 -2.59,-0.08 -2.57,-0.51 -2.42,-0.90 -2.27,-1.30 -2.00,-1.63 -1.74,-1.96 -1.38,-2.19 -1.02,-2.41 -0.60,-2.51 -0.19,-2.61 0.22,-2.58 0.65,-2.54 1.03,-2.37 1.42,-2.20 1.42,-2.20 1.42,-2.20 2.73,1.37 4.03,4.96 3.62,5.08 3.21,5.19 2.79,5.21 2.36,5.23 1.95,5.14 1.53,5.06 1.15,4.87 0.77,4.69 0.44,4.42 0.11,4.15 -0.14,3.81 -0.39,3.47 -0.56,3.08 -0.72,2.69 -0.79,2.27 -0.86,1.85 -0.82,1.43 -0.79,1.01 -0.65,0.61 -0.52,0.20 -0.29,-0.15 -0.07,-0.50 0.23,-0.80 0.54,-1.09 0.91,-1.30 1.27,-1.52 1.68,-2.01 2.09,-2.51 3.99,-4.08 5.88,-5.65 7.32,-7.53 8.76,-9.42 9.12,-11.75 9.47,-14.08 9.47,-16.48 9.47,-18.87 8.91,-21.11 8.35,-23.35 6.56,-25.16 4.77,-26.97 2.63,-26.95 0.50,-26.93 -1.23,-25.51 -2.97,-24.09 -2.88,-21.92 -2.80,-19.75 -1.99,-16.95 -1.19,-14.15 -0.40,-11.92 0.38,-9.68 1.10,-7.24 1.81,-4.80 2.53,-3.07 3.25,-1.35 3.36,-0.94 3.48,-0.53 3.49,-0.11 3.50,0.31 3.42,0.72 3.33,1.14 3.14,1.52 2.96,1.90 2.69,2.23 2.41,2.55 2.07,2.81 1.73,3.06 1.34,3.22 0.95,3.39 0.53,3.45 0.11,3.52 -0.30,3.48 -0.73,3.44 -1.13,3.30 -1.53,3.16 -1.89,2.94 -2.24,2.71 -2.54,2.40 -2.83,2.09 -3.04,1.72 -3.25,1.35 -3.25,1.35 L -3.25,1.35 Z"></path></g><g transform="translate(66.5 50) rotate(0 11.5 6.5)" stroke="none"><path fill="#1e1e1e" d="M -1.43,-3.21 Q -1.43,-3.21 -0.13,-3.79 1.16,-4.37 3.21,-4.94 5.26,-5.51 8.07,-5.99 10.89,-6.46 13.06,-6.49 15.24,-6.52 17.63,-6.51 20.02,-6.51 22.57,-5.59 25.12,-4.66 26.70,-2.29 28.28,0.08 28.86,2.52 29.44,4.97 29.73,7.23 30.01,9.50 29.34,11.55 28.67,13.59 26.97,15.08 25.27,16.56 23.38,17.53 21.48,18.49 18.88,18.75 16.29,19.01 14.06,19.25 11.83,19.50 9.25,19.00 6.67,18.49 4.78,16.73 2.89,14.97 0.86,13.31 -1.17,11.66 -2.81,10.31 -4.46,8.96 -5.49,6.42 -6.52,3.89 -4.26,1.09 -2.00,-1.69 -1.68,-1.97 -1.35,-2.24 -0.96,-2.40 -0.56,-2.56 -0.14,-2.58 0.28,-2.61 0.69,-2.49 1.09,-2.38 1.45,-2.14 1.80,-1.90 2.06,-1.57 2.31,-1.23 2.45,-0.83 2.59,-0.42 2.59,-0.00 2.59,0.42 2.45,0.82 2.32,1.22 2.06,1.56 1.80,1.90 1.45,2.14 1.10,2.38 0.69,2.49 0.28,2.61 -0.13,2.58 -0.56,2.56 -0.95,2.40 -1.35,2.25 -1.67,1.97 -1.99,1.70 -2.21,1.33 -2.43,0.97 -2.53,0.56 -2.62,0.14 -2.57,-0.27 -2.53,-0.69 -2.35,-1.08 -2.17,-1.47 -1.88,-1.78 -1.59,-2.08 -1.21,-2.28 -0.84,-2.48 -0.42,-2.55 -0.00,-2.62 0.41,-2.55 0.83,-2.49 1.21,-2.29 1.58,-2.09 1.87,-1.78 2.17,-1.47 2.35,-1.09 2.53,-0.70 2.57,-0.28 2.62,0.13 2.53,0.55 2.44,0.96 2.22,1.33 2.00,1.69 2.00,1.69 2.00,1.69 2.38,3.71 2.75,5.73 4.53,6.99 6.31,8.25 8.06,10.37 9.82,12.49 11.99,12.42 14.17,12.34 16.53,12.14 18.89,11.94 20.93,10.44 22.97,8.94 22.72,6.81 22.47,4.67 20.86,2.60 19.26,0.52 16.76,0.52 14.26,0.52 12.06,0.60 9.86,0.68 6.93,1.37 4.00,2.07 2.71,2.64 1.43,3.21 1.02,3.34 0.61,3.46 0.19,3.49 -0.22,3.51 -0.64,3.43 -1.06,3.35 -1.45,3.18 -1.83,3.00 -2.16,2.74 -2.50,2.47 -2.76,2.14 -3.02,1.80 -3.19,1.41 -3.36,1.03 -3.44,0.61 -3.51,0.19 -3.48,-0.22 -3.46,-0.65 -3.33,-1.05 -3.20,-1.46 -2.98,-1.82 -2.76,-2.18 -2.46,-2.48 -2.15,-2.78 -1.79,-3.00 -1.43,-3.21 -1.43,-3.21 L -1.43,-3.21 Z"></path></g><g transform="translate(50.5 75.5) rotate(0 -0.25 12.75)" stroke="none"><path fill="#1e1e1e" d="M 1.74,-3.05 Q 1.74,-3.05 2.75,-2.48 3.76,-1.90 5.58,0.01 7.41,1.94 8.60,4.31 9.79,6.67 9.90,8.94 10.01,11.21 10.25,13.43 10.50,15.64 10.51,17.86 10.52,20.08 10.03,22.34 9.54,24.60 7.89,26.08 6.25,27.57 3.89,28.28 1.54,29.00 -0.95,28.71 -3.44,28.43 -5.51,26.71 -7.58,24.98 -8.67,22.98 -9.77,20.97 -10.36,18.70 -10.96,16.42 -10.99,14.17 -11.01,11.92 -10.77,9.79 -10.53,7.66 -10.19,5.49 -9.84,3.31 -8.36,1.36 -6.87,-0.59 -3.87,-1.53 -0.87,-2.47 -0.45,-2.55 -0.04,-2.62 0.37,-2.56 0.80,-2.50 1.17,-2.30 1.55,-2.11 1.85,-1.81 2.15,-1.50 2.33,-1.12 2.51,-0.74 2.57,-0.31 2.62,0.10 2.53,0.51 2.45,0.93 2.24,1.30 2.02,1.66 1.70,1.94 1.38,2.22 0.99,2.39 0.60,2.55 0.18,2.58 -0.24,2.61 -0.65,2.50 -1.06,2.40 -1.42,2.16 -1.77,1.93 -2.03,1.60 -2.30,1.26 -2.44,0.86 -2.58,0.46 -2.59,0.03 -2.59,-0.38 -2.46,-0.78 -2.33,-1.19 -2.08,-1.53 -1.83,-1.87 -1.48,-2.12 -1.13,-2.36 -0.73,-2.48 -0.32,-2.60 0.10,-2.59 0.52,-2.57 0.92,-2.42 1.31,-2.27 1.64,-2.00 1.97,-1.73 2.20,-1.37 2.42,-1.00 2.52,-0.59 2.62,-0.18 2.58,0.24 2.54,0.66 2.36,1.05 2.19,1.44 1.90,1.75 1.62,2.06 1.24,2.27 0.87,2.47 0.87,2.47 0.87,2.47 -1.32,4.07 -3.51,5.66 -3.55,7.92 -3.59,10.18 -3.77,12.64 -3.95,15.11 -3.48,17.33 -3.01,19.54 -0.99,20.90 1.02,22.27 2.25,20.17 3.47,18.07 3.43,15.65 3.40,13.23 3.11,10.43 2.82,7.63 1.54,5.91 0.26,4.20 -0.74,3.63 -1.74,3.05 -2.08,2.80 -2.42,2.55 -2.69,2.22 -2.96,1.89 -3.15,1.51 -3.33,1.13 -3.42,0.71 -3.50,0.29 -3.49,-0.12 -3.47,-0.54 -3.36,-0.95 -3.24,-1.36 -3.03,-1.73 -2.82,-2.10 -2.53,-2.41 -2.23,-2.71 -1.88,-2.94 -1.52,-3.17 -1.12,-3.31 -0.71,-3.44 -0.29,-3.48 0.12,-3.51 0.54,-3.45 0.96,-3.38 1.35,-3.22 1.74,-3.05 1.74,-3.05 L 1.74,-3.05 Z"></path></g><g transform="translate(36 69.5) rotate(0 -11.75 -4.25)" stroke="none"><path fill="#1e1e1e" d="M 2.25,2.70 Q 2.25,2.70 1.38,3.42 0.52,4.14 -1.51,5.11 -3.55,6.08 -6.56,6.49 -9.58,6.90 -11.71,7.20 -13.85,7.51 -16.75,7.18 -19.66,6.85 -21.52,5.45 -23.38,4.04 -25.30,2.65 -27.22,1.26 -28.24,-0.63 -29.26,-2.53 -29.39,-4.73 -29.51,-6.94 -28.77,-9.09 -28.03,-11.25 -25.42,-12.78 -22.82,-14.31 -20.52,-15.07 -18.21,-15.83 -15.72,-15.92 -13.22,-16.02 -11.05,-15.78 -8.88,-15.54 -6.34,-14.70 -3.79,-13.85 -1.54,-12.49 0.70,-11.13 1.96,-9.33 3.22,-7.53 3.37,-5.26 3.51,-2.99 2.31,-2.68 1.11,-2.37 1.38,-2.20 1.65,-2.03 1.87,-1.81 2.09,-1.58 2.25,-1.31 2.41,-1.03 2.50,-0.73 2.59,-0.42 2.60,-0.11 2.61,0.20 2.55,0.51 2.49,0.82 2.35,1.11 2.22,1.39 2.02,1.64 1.82,1.88 1.57,2.07 1.32,2.27 1.02,2.39 0.73,2.52 0.42,2.57 0.11,2.62 -0.20,2.59 -0.51,2.57 -0.81,2.47 -1.11,2.37 -0.61,2.50 -0.11,2.62 -0.52,2.53 -0.94,2.45 -1.31,2.23 -1.67,2.02 -1.95,1.70 -2.23,1.37 -2.39,0.98 -2.55,0.59 -2.58,0.16 -2.61,-0.25 -2.50,-0.66 -2.39,-1.07 -2.16,-1.43 -1.92,-1.78 -1.59,-2.04 -1.25,-2.30 -0.85,-2.44 -0.45,-2.58 -0.02,-2.59 0.39,-2.59 0.79,-2.46 1.20,-2.33 1.54,-2.08 1.88,-1.82 2.12,-1.47 2.37,-1.12 2.48,-0.72 2.60,-0.31 2.58,0.11 2.57,0.53 2.41,0.93 2.26,1.32 1.99,1.65 1.72,1.98 1.36,2.20 0.99,2.42 0.58,2.52 0.17,2.62 -0.25,2.57 -0.67,2.53 -1.06,2.36 -1.44,2.19 -1.76,1.90 -2.07,1.61 -2.27,1.23 -2.47,0.86 -2.55,0.44 -2.62,0.02 -2.56,-0.39 -2.49,-0.81 -2.30,-1.18 -2.10,-1.56 -1.80,-1.86 -1.49,-2.15 -1.11,-2.34 -0.73,-2.52 0.19,-2.44 1.11,-2.37 1.38,-2.20 1.65,-2.03 1.87,-1.81 2.09,-1.58 2.25,-1.31 2.41,-1.03 2.50,-0.73 2.59,-0.42 2.60,-0.11 2.61,0.20 2.55,0.51 2.49,0.82 2.35,1.11 2.22,1.39 2.02,1.64 1.82,1.88 1.57,2.07 1.32,2.27 1.02,2.39 0.73,2.52 0.42,2.57 0.11,2.62 -0.20,2.59 -0.51,2.57 -0.81,2.47 -1.11,2.37 -1.95,1.09 -2.79,-0.19 -3.02,-2.71 -3.26,-5.24 -5.02,-6.45 -6.78,-7.66 -9.50,-8.31 -12.22,-8.97 -14.37,-9.02 -16.52,-9.06 -19.51,-8.40 -22.50,-7.74 -22.33,-5.33 -22.16,-2.92 -20.09,-1.84 -18.01,-0.76 -15.98,-0.14 -13.94,0.46 -11.57,0.14 -9.20,-0.17 -6.58,-0.72 -3.97,-1.27 -3.11,-1.99 -2.25,-2.70 -1.89,-2.93 -1.54,-3.16 -1.14,-3.30 -0.73,-3.44 -0.31,-3.48 0.10,-3.52 0.52,-3.45 0.94,-3.39 1.33,-3.23 1.73,-3.06 2.07,-2.81 2.41,-2.56 2.68,-2.23 2.95,-1.91 3.14,-1.53 3.32,-1.14 3.41,-0.73 3.50,-0.31 3.49,0.10 3.48,0.53 3.36,0.93 3.25,1.34 3.04,1.71 2.83,2.08 2.54,2.39 2.25,2.70 2.25,2.70 L 2.25,2.70 Z"></path></g><g transform="translate(50.5 62) rotate(0 -2.25 0.25)" stroke="none"><path fill="#1e1e1e" d="M 1.74,3.05 Q 1.74,3.05 0.74,3.63 -0.26,4.20 -2.93,4.26 -5.59,4.32 -6.47,1.34 -7.35,-1.64 -5.15,-3.02 -2.96,-4.41 -0.81,-3.52 1.32,-2.62 1.59,-0.25 1.85,2.11 -0.95,3.18 -3.76,4.25 -5.12,2.23 -6.49,0.22 -4.61,-2.04 -2.74,-4.31 -0.79,-3.33 1.15,-2.35 1.50,-2.11 1.84,-1.86 2.09,-1.52 2.34,-1.17 2.47,-0.77 2.60,-0.36 2.59,0.05 2.58,0.48 2.43,0.88 2.29,1.28 2.02,1.61 1.76,1.94 1.40,2.17 1.04,2.40 0.63,2.51 0.22,2.61 -0.19,2.58 -0.62,2.55 -1.01,2.38 -1.40,2.21 -1.72,1.93 -2.04,1.65 -2.25,1.28 -2.46,0.91 -2.54,0.49 -2.62,0.08 -2.56,-0.33 -2.51,-0.76 -2.32,-1.14 -2.13,-1.52 -1.84,-1.82 -1.54,-2.12 -1.16,-2.31 -0.78,-2.50 -0.36,-2.56 0.05,-2.62 0.47,-2.54 0.89,-2.46 1.26,-2.26 1.63,-2.05 1.92,-1.73 2.20,-1.42 2.37,-1.03 2.54,-0.64 2.58,-0.22 2.61,0.20 2.51,0.61 2.41,1.02 2.18,1.38 1.96,1.74 1.63,2.01 1.30,2.28 0.90,2.42 0.50,2.57 0.08,2.59 -0.34,2.60 -0.75,2.48 -1.15,2.35 -1.15,2.35 -1.15,2.35 -1.07,1.86 -0.98,1.36 -2.37,-0.27 -3.75,-1.90 -2.75,-2.48 -1.74,-3.05 -1.35,-3.22 -0.96,-3.38 -0.54,-3.45 -0.12,-3.51 0.29,-3.48 0.71,-3.44 1.12,-3.31 1.52,-3.17 1.88,-2.94 2.23,-2.71 2.53,-2.41 2.82,-2.10 3.03,-1.73 3.24,-1.36 3.36,-0.95 3.47,-0.54 3.49,-0.12 3.50,0.29 3.42,0.71 3.33,1.13 3.15,1.51 2.96,1.89 2.69,2.22 2.42,2.55 2.08,2.80 1.74,3.05 1.74,3.05 L 1.74,3.05 Z"></path></g><g transform="translate(50 60) rotate(0 -0.25 1)" stroke="none"><path fill="#1e1e1e" d="M 3.36,-1.04 Q 3.36,-1.04 3.41,-0.20 3.46,0.63 3.11,1.40 2.77,2.17 2.10,2.69 1.44,3.21 0.61,3.36 -0.21,3.51 -1.01,3.26 -1.82,3.01 -2.41,2.41 -3.01,1.82 -3.26,1.01 -3.51,0.21 -3.36,-0.61 -3.21,-1.44 -2.69,-2.10 -2.17,-2.77 -1.40,-3.11 -0.63,-3.46 0.20,-3.41 1.04,-3.36 1.76,-2.92 2.49,-2.49 2.92,-1.76 L 3.36,-1.04 Z"></path></g><g transform="translate(50 62) rotate(0 0.5 0)" stroke="none"><path fill="#1e1e1e" d="M 3.36,-1.04 Q 3.36,-1.04 3.41,-0.20 3.46,0.63 3.11,1.40 2.77,2.17 2.10,2.69 1.44,3.21 0.61,3.36 -0.21,3.51 -1.01,3.26 -1.82,3.01 -2.41,2.41 -3.01,1.82 -3.26,1.01 -3.51,0.21 -3.36,-0.61 -3.21,-1.44 -2.69,-2.10 -2.17,-2.77 -1.40,-3.11 -0.63,-3.46 0.20,-3.41 1.04,-3.36 1.76,-2.92 2.49,-2.49 2.92,-1.76 L 3.36,-1.04 Z"></path></g></svg>