<?xml version="1.0" standalone="no"?>
<!DOCTYPE svg PUBLIC "-//W3C//DTD SVG 1.1//EN" "http://www.w3.org/Graphics/SVG/1.1/DTD/svg11.dtd">
<svg version="1.1" xmlns="http://www.w3.org/2000/svg" viewBox="0 0 108 101" width="216" height="202"><!-- svg-source:excalidraw --><metadata></metadata><defs><style class="style-fonts">
      </style></defs><g transform="translate(54 12.5) rotate(0 0 38)" stroke="none"><path fill="#1e1e1e" d="M -2.04,2.86 Q -2.04,2.86 -3.04,2.15 -4.04,1.43 -6.19,1.83 -8.33,2.23 -10.77,3.35 -13.21,4.47 -16.02,5.63 -18.84,6.78 -21.19,7.89 -23.54,8.99 -25.83,11.18 -28.12,13.36 -29.68,15.78 -31.24,18.21 -32.62,20.61 -33.99,23.01 -35.66,25.72 -37.32,28.42 -38.62,30.79 -39.91,33.15 -40.12,35.38 -40.32,37.61 -40.38,40.47 -40.44,43.34 -40.46,45.62 -40.47,47.90 -40.06,50.34 -39.65,52.79 -38.76,55.07 -37.88,57.36 -36.71,59.42 -35.54,61.47 -34.22,63.20 -32.90,64.93 -30.95,66.63 -29.01,68.34 -26.82,69.83 -24.64,71.32 -22.45,72.25 -20.25,73.18 -17.33,73.93 -14.41,74.68 -11.80,74.81 -9.20,74.94 -6.36,74.83 -3.52,74.71 -1.25,74.41 1.01,74.11 3.20,73.55 5.39,72.98 7.93,72.34 10.47,71.70 12.76,70.99 15.05,70.29 17.22,69.49 19.40,68.68 21.45,67.83 23.50,66.98 25.48,65.75 27.46,64.52 29.62,62.69 31.77,60.86 33.60,57.93 35.43,54.99 36.50,52.95 37.58,50.91 38.67,48.58 39.76,46.26 40.06,43.98 40.36,41.70 40.40,39.47 40.45,37.24 40.46,34.78 40.47,32.32 40.15,29.27 39.84,26.22 39.18,23.72 38.52,21.21 36.50,19.05 34.48,16.89 32.48,15.34 30.49,13.80 27.37,12.60 24.25,11.41 21.62,10.32 18.98,9.24 16.10,8.29 13.22,7.35 10.04,6.26 6.86,5.17 4.67,4.47 2.47,3.78 0.25,3.43 -1.97,3.08 -3.50,3.50 -5.04,3.93 -5.25,4.30 -5.47,4.66 -5.79,4.94 -6.11,5.22 -6.50,5.39 -6.89,5.55 -7.31,5.58 -7.74,5.61 -8.15,5.50 -8.56,5.40 -8.92,5.16 -9.27,4.93 -9.53,4.60 -9.80,4.26 -9.94,3.86 -10.08,3.46 -10.09,3.04 -10.09,2.61 -9.96,2.21 -9.83,1.80 -9.58,1.46 -9.33,1.12 -8.98,0.87 -8.64,0.63 -8.23,0.51 -7.82,0.39 -7.40,0.40 -6.97,0.42 -6.57,0.57 -6.18,0.72 -5.85,0.99 -5.52,1.26 -5.30,1.62 -5.07,1.98 -4.97,2.40 -4.87,2.81 -4.91,3.24 -4.95,3.66 -5.13,4.05 -5.30,4.44 -5.59,4.75 -5.87,5.06 -6.25,5.27 -6.62,5.47 -7.04,5.55 -7.45,5.62 -7.87,5.56 -8.29,5.50 -8.67,5.30 -9.05,5.11 -9.35,4.81 -9.65,4.50 -9.83,4.12 -10.01,3.74 -10.07,3.32 -10.12,2.89 -10.03,2.48 -9.95,2.06 -9.95,2.06 -9.95,2.06 -8.48,-0.37 -7.01,-2.82 -3.36,-3.33 0.28,-3.83 3.32,-3.14 6.36,-2.45 8.63,-1.48 10.91,-0.51 13.01,0.02 15.11,0.57 18.24,1.59 21.38,2.61 24.15,3.75 26.92,4.89 29.26,5.72 31.60,6.56 33.92,7.82 36.24,9.07 38.29,10.90 40.34,12.72 42.15,14.63 43.95,16.54 44.94,19.25 45.93,21.96 46.57,24.57 47.20,27.17 47.36,29.76 47.51,32.34 47.50,34.83 47.49,37.33 47.44,39.81 47.38,42.30 47.06,44.53 46.75,46.76 45.72,49.46 44.69,52.16 43.71,54.21 42.74,56.26 41.47,58.54 40.19,60.82 38.60,63.20 37.01,65.58 35.21,67.28 33.41,68.98 31.12,70.45 28.83,71.93 26.47,73.17 24.10,74.42 22.01,75.20 19.91,75.98 17.30,76.92 14.69,77.86 12.04,78.59 9.39,79.33 7.01,79.85 4.62,80.38 1.02,81.04 -2.58,81.70 -5.00,81.85 -7.42,82.00 -10.42,81.92 -13.42,81.84 -15.89,81.42 -18.37,81.01 -20.46,80.42 -22.56,79.83 -25.56,78.51 -28.56,77.18 -30.88,75.59 -33.20,74.01 -34.94,72.60 -36.68,71.20 -38.32,69.33 -39.96,67.45 -41.52,65.06 -43.08,62.67 -44.24,59.98 -45.39,57.28 -46.29,54.70 -47.19,52.11 -47.35,48.90 -47.50,45.68 -47.48,42.94 -47.45,40.19 -47.26,36.99 -47.07,33.79 -45.98,30.54 -44.88,27.30 -43.31,24.72 -41.75,22.14 -40.31,19.70 -38.87,17.25 -37.18,14.41 -35.50,11.56 -33.60,9.14 -31.71,6.72 -29.49,4.87 -27.26,3.01 -24.41,1.65 -21.56,0.28 -18.70,-0.88 -15.83,-2.06 -13.37,-3.18 -10.91,-4.31 -7.63,-5.04 -4.35,-5.77 -2.16,-5.04 0.01,-4.31 1.03,-3.58 2.04,-2.86 2.36,-2.57 2.67,-2.29 2.90,-1.93 3.14,-1.58 3.28,-1.18 3.43,-0.78 3.47,-0.36 3.52,0.05 3.46,0.47 3.40,0.89 3.24,1.29 3.09,1.68 2.84,2.03 2.59,2.37 2.27,2.65 1.95,2.93 1.57,3.12 1.19,3.31 0.78,3.40 0.36,3.50 -0.05,3.49 -0.48,3.48 -0.89,3.38 -1.30,3.27 -1.67,3.06 -2.04,2.86 -2.04,2.86 L -2.04,2.86 Z"></path></g><g transform="translate(40 38) rotate(0 -3.25 -3.25)" stroke="none"><path fill="#1e1e1e" d="M 3.15,1.57 Q 3.15,1.57 2.71,2.43 2.28,3.30 0.73,4.88 -0.81,6.45 -3.52,6.47 -6.23,6.49 -7.70,4.37 -9.18,2.25 -8.59,-0.05 -8.00,-2.36 -6.02,-3.31 -4.04,-4.26 -1.25,-2.24 1.54,-0.23 0.44,1.93 -0.66,4.10 -2.75,4.55 -4.85,4.99 -6.82,3.16 -8.80,1.33 -7.88,-0.60 -6.97,-2.55 -3.95,-2.20 -0.94,-1.84 -0.66,-0.89 -0.39,0.04 -0.34,0.47 -0.29,0.89 -0.34,1.31 -0.40,1.73 -0.55,2.13 -0.70,2.52 -0.94,2.87 -1.19,3.22 -1.51,3.50 -1.83,3.78 -2.20,3.97 -2.58,4.17 -2.99,4.27 -3.40,4.37 -3.83,4.37 -4.25,4.37 -4.67,4.26 -5.08,4.16 -5.45,3.96 -5.83,3.76 -6.14,3.48 -6.46,3.19 -6.70,2.84 -6.94,2.49 -7.09,2.10 -7.24,1.70 -6.40,-0.61 -5.56,-2.93 -4.43,-3.48 -3.29,-4.03 -2.88,-4.13 -2.46,-4.22 -2.04,-4.22 -1.61,-4.21 -1.20,-4.11 -0.79,-4.00 -0.42,-3.80 -0.05,-3.59 0.26,-3.31 0.57,-3.02 0.81,-2.67 1.05,-2.32 1.19,-1.92 1.34,-1.52 1.38,-1.10 1.43,-0.68 1.37,-0.25 1.31,0.16 1.16,0.55 1.00,0.95 0.76,1.29 0.51,1.64 0.19,1.92 -0.12,2.19 -0.50,2.38 -0.88,2.58 -3.70,2.56 -6.53,2.54 -7.65,0.19 -8.78,-2.16 -7.42,-4.55 -6.06,-6.94 -3.03,-7.40 -0.01,-7.86 1.59,-5.36 3.21,-2.86 2.66,-0.43 2.11,1.99 -0.85,3.00 -3.82,4.02 -6.50,2.27 -9.18,0.53 -9.60,-2.29 -10.03,-5.11 -8.10,-7.06 -6.17,-9.00 -3.27,-8.90 -0.38,-8.79 0.92,-6.50 2.23,-4.20 1.76,-1.83 1.29,0.54 -1.59,1.33 -4.47,2.12 -6.17,-0.01 -7.87,-2.14 -7.73,-5.07 -7.58,-8.00 -5.51,-9.82 -3.44,-11.63 -0.14,-10.52 3.16,-9.42 3.62,-6.67 4.08,-3.92 2.75,-1.72 1.43,0.47 -1.71,0.54 -4.85,0.60 -6.06,-2.09 -7.27,-4.79 -6.23,-7.75 -5.19,-10.72 -1.70,-11.56 1.78,-12.39 3.06,-10.22 4.33,-8.05 3.72,-5.46 3.10,-2.87 1.06,-1.24 -0.97,0.38 -3.87,-0.70 -6.78,-1.79 -7.34,-4.03 -7.90,-6.27 -4.61,-8.39 -1.33,-10.52 -0.25,-8.21 0.81,-5.90 0.57,-2.77 0.33,0.35 -0.55,2.54 -1.43,4.74 -1.69,4.97 -1.95,5.20 -2.18,5.56 -2.42,5.91 -2.73,6.20 -3.05,6.48 -3.42,6.68 -3.79,6.88 -4.21,6.99 -4.62,7.10 -5.04,7.10 -5.47,7.11 -5.88,7.01 -6.29,6.92 -6.67,6.72 -7.05,6.53 -7.37,6.25 -7.69,5.98 -7.94,5.63 -8.18,5.28 -8.34,4.89 -8.49,4.49 -8.55,4.07 -8.61,3.65 -8.56,3.23 -8.52,2.81 -8.37,2.41 -8.22,2.01 -8.23,-0.58 -8.24,-3.18 -6.81,-5.47 -5.37,-7.76 -3.07,-7.65 -0.77,-7.54 0.71,-5.00 2.21,-2.45 1.95,0.21 1.70,2.88 0.26,4.57 -1.18,6.26 -3.47,6.23 -5.76,6.19 -7.02,4.15 -8.29,2.11 -7.69,-0.41 -7.09,-2.95 -5.24,-4.50 -3.38,-6.05 -0.49,-5.03 2.38,-4.02 2.64,-1.51 2.90,1.00 1.56,2.79 0.22,4.57 -0.66,4.76 -1.55,4.94 -1.97,4.96 -2.40,4.98 -2.81,4.90 -3.23,4.82 -3.61,4.64 -4.00,4.46 -4.33,4.20 -4.66,3.93 -4.92,3.59 -5.18,3.25 -5.34,2.86 -5.51,2.48 -5.59,2.06 -5.66,1.64 -5.63,1.21 -5.59,0.79 -5.46,0.39 -5.33,-0.01 -5.11,-0.37 -4.88,-0.73 -4.58,-1.02 -4.27,-1.32 -3.91,-1.53 -3.54,-1.75 -3.14,-1.87 -2.73,-1.99 -1.18,-2.29 0.36,-2.60 0.76,-2.47 1.17,-2.34 1.51,-2.10 1.86,-1.85 2.10,-1.50 2.35,-1.15 2.48,-0.75 2.60,-0.34 2.59,0.07 2.57,0.50 2.43,0.90 2.28,1.29 2.01,1.63 1.74,1.96 1.38,2.18 1.03,2.41 0.61,2.51 0.20,2.61 -0.21,2.58 -0.64,2.54 -1.03,2.37 -1.42,2.20 -1.73,1.92 -2.05,1.63 -2.26,1.26 -2.46,0.89 -2.54,0.48 -2.62,0.06 -2.56,-0.35 -2.50,-0.77 -2.31,-1.15 -2.12,-1.53 -1.82,-1.83 -1.52,-2.13 -1.14,-2.32 -0.76,-2.51 -0.34,-2.56 0.07,-2.62 0.49,-2.54 0.91,-2.46 1.28,-2.25 1.65,-2.04 1.93,-1.72 2.21,-1.40 2.38,-1.01 2.55,-0.62 2.58,-0.20 2.61,0.22 2.51,0.63 2.40,1.04 2.17,1.40 1.94,1.76 1.61,2.02 1.28,2.29 0.88,2.43 0.48,2.58 0.06,2.59 -0.36,2.60 -0.36,2.60 -0.36,2.60 -0.95,3.77 -1.55,4.94 -1.97,4.96 -2.39,4.98 -2.81,4.90 -3.23,4.82 -3.61,4.64 -4.00,4.46 -4.33,4.20 -4.66,3.93 -4.92,3.59 -5.18,3.25 -5.34,2.87 -5.51,2.48 -5.58,2.06 -5.66,1.64 -5.63,1.22 -5.59,0.79 -5.46,0.39 -5.33,-0.01 -5.11,-0.37 -4.88,-0.73 -4.58,-1.02 -4.27,-1.32 -3.91,-1.53 -3.54,-1.75 -3.14,-1.87 -2.73,-1.99 -2.20,-1.03 -1.68,-0.07 -1.81,2.56 -1.95,5.20 -2.18,5.56 -2.42,5.91 -2.73,6.19 -3.05,6.48 -3.42,6.68 -3.79,6.88 -4.21,6.99 -4.62,7.10 -5.04,7.10 -5.47,7.11 -5.88,7.01 -6.29,6.92 -6.67,6.72 -7.05,6.53 -7.37,6.25 -7.69,5.98 -7.94,5.63 -8.18,5.28 -8.34,4.89 -8.49,4.49 -8.55,4.07 -8.61,3.65 -8.56,3.23 -8.52,2.81 -8.37,2.41 -8.22,2.01 -7.39,0.45 -6.55,-1.09 -5.06,-3.48 -3.57,-5.88 -1.47,-6.35 0.63,-6.82 -1.32,-5.42 -3.29,-4.03 -2.88,-4.13 -2.46,-4.22 -2.04,-4.22 -1.61,-4.21 -1.20,-4.11 -0.79,-4.00 -0.42,-3.80 -0.05,-3.59 0.26,-3.31 0.57,-3.02 0.81,-2.67 1.05,-2.32 1.19,-1.92 1.34,-1.52 1.38,-1.10 1.43,-0.68 1.37,-0.26 1.31,0.16 1.16,0.55 1.00,0.95 0.76,1.29 0.51,1.64 0.19,1.92 -0.12,2.19 -0.50,2.38 -0.88,2.58 -0.63,1.31 -0.39,0.04 -0.34,0.47 -0.29,0.89 -0.34,1.31 -0.40,1.73 -0.55,2.13 -0.70,2.52 -0.94,2.87 -1.19,3.22 -1.51,3.50 -1.83,3.78 -2.20,3.97 -2.58,4.17 -2.99,4.27 -3.40,4.37 -3.83,4.37 -4.25,4.37 -4.67,4.26 -5.08,4.16 -5.45,3.96 -5.83,3.76 -6.14,3.48 -6.46,3.19 -6.70,2.84 -6.94,2.49 -7.09,2.10 -7.24,1.70 -5.62,0.92 -4.01,0.14 -3.58,-0.71 -3.15,-1.57 -2.91,-1.92 -2.68,-2.28 -2.36,-2.57 -2.05,-2.85 -1.68,-3.06 -1.31,-3.26 -0.90,-3.37 -0.49,-3.48 -0.06,-3.49 0.35,-3.50 0.76,-3.41 1.18,-3.31 1.56,-3.12 1.94,-2.93 2.26,-2.66 2.59,-2.38 2.83,-2.04 3.08,-1.69 3.24,-1.30 3.40,-0.90 3.46,-0.48 3.52,-0.06 3.47,0.35 3.43,0.77 3.29,1.17 3.15,1.57 3.15,1.57 L 3.15,1.57 Z"></path></g><g transform="translate(42 35) rotate(0 -4 5.25)" stroke="none"><path fill="#1e1e1e" d="M 3.51,0.27 Q 3.51,0.27 3.36,2.13 3.22,4.00 2.96,6.38 2.70,8.75 1.36,10.83 0.03,12.91 -2.84,13.27 -5.71,13.62 -7.86,11.65 -10.01,9.68 -10.11,6.20 -10.21,2.73 -5.76,0.22 -1.30,-2.27 -0.90,-2.42 -0.51,-2.57 -0.08,-2.59 0.33,-2.60 0.74,-2.48 1.15,-2.36 1.49,-2.11 1.84,-1.86 2.09,-1.52 2.34,-1.18 2.47,-0.77 2.60,-0.37 2.59,0.05 2.58,0.47 2.43,0.87 2.29,1.27 2.03,1.61 1.76,1.94 1.40,2.17 1.05,2.40 0.64,2.51 0.22,2.61 -0.19,2.58 -0.61,2.55 -1.00,2.38 -1.40,2.22 -1.71,1.93 -2.03,1.65 -2.24,1.28 -2.46,0.92 -2.54,0.50 -2.62,0.08 -2.57,-0.33 -2.51,-0.75 -2.32,-1.13 -2.14,-1.51 -1.84,-1.82 -1.54,-2.12 -1.16,-2.31 -0.78,-2.50 -0.36,-2.56 0.05,-2.62 0.47,-2.54 0.89,-2.47 1.26,-2.26 1.63,-2.05 1.91,-1.74 2.20,-1.42 2.37,-1.03 2.54,-0.64 2.58,-0.22 2.61,0.19 2.51,0.61 2.41,1.02 2.19,1.38 1.96,1.74 1.63,2.01 1.30,2.27 1.30,2.27 1.30,2.27 -1.62,5.04 -4.56,7.81 -4.18,5.63 -3.79,3.46 -3.65,1.59 -3.51,-0.27 -3.42,-0.68 -3.34,-1.10 -3.16,-1.48 -2.98,-1.87 -2.71,-2.20 -2.44,-2.53 -2.11,-2.78 -1.77,-3.04 -1.38,-3.21 -0.99,-3.37 -0.57,-3.44 -0.15,-3.51 0.26,-3.48 0.69,-3.45 1.09,-3.32 1.49,-3.18 1.85,-2.96 2.21,-2.73 2.51,-2.43 2.80,-2.12 3.02,-1.75 3.23,-1.39 3.35,-0.98 3.47,-0.57 3.49,-0.15 3.51,0.27 3.51,0.27 L 3.51,0.27 Z"></path></g><g transform="translate(35 35) rotate(0 0.25 5)" stroke="none"><path fill="#1e1e1e" d="M 1.11,3.34 Q 1.11,3.34 0.53,3.39 -0.05,3.44 1.01,5.35 2.07,7.27 1.76,7.31 1.44,7.35 1.76,7.07 2.07,6.79 2.46,6.62 2.85,6.45 3.28,6.41 3.70,6.38 4.11,6.48 4.53,6.58 4.89,6.81 5.24,7.04 5.51,7.37 5.78,7.70 5.93,8.09 6.07,8.49 6.09,8.92 6.10,9.34 5.97,9.75 5.85,10.16 5.60,10.50 5.36,10.85 5.01,11.10 4.67,11.35 4.26,11.47 3.86,11.60 3.43,11.59 3.01,11.58 2.61,11.43 2.21,11.28 1.88,11.02 1.54,10.75 1.31,10.40 1.08,10.04 0.98,9.63 0.88,9.21 0.91,8.79 0.94,8.37 1.11,7.98 1.28,7.59 1.56,7.27 1.84,6.95 2.21,6.74 2.58,6.53 3.00,6.45 3.42,6.37 3.84,6.43 4.26,6.48 4.64,6.67 5.02,6.86 5.32,7.16 5.62,7.46 5.81,7.84 6.00,8.22 6.06,8.64 6.12,9.06 6.04,9.48 5.96,9.89 5.75,10.27 5.55,10.64 5.55,10.64 5.55,10.64 3.85,12.21 2.15,13.78 -0.02,13.29 -2.20,12.81 -3.75,10.74 -5.30,8.68 -5.77,5.90 -6.23,3.12 -4.81,0.41 -3.39,-2.29 -2.25,-2.81 -1.11,-3.34 -0.69,-3.42 -0.28,-3.51 0.14,-3.49 0.56,-3.47 0.97,-3.35 1.38,-3.23 1.74,-3.02 2.11,-2.81 2.42,-2.52 2.72,-2.22 2.95,-1.86 3.18,-1.50 3.31,-1.10 3.45,-0.70 3.48,-0.27 3.51,0.14 3.45,0.56 3.38,0.98 3.21,1.37 3.04,1.76 2.79,2.10 2.53,2.44 2.20,2.70 1.88,2.97 1.49,3.15 1.11,3.34 1.11,3.34 L 1.11,3.34 Z"></path></g><g transform="translate(37 35) rotate(0 2 2.25)" stroke="none"><path fill="#1e1e1e" d="M 3.39,-0.92 Q 3.39,-0.92 3.78,0.57 4.17,2.07 4.98,2.38 5.78,2.70 6.03,3.04 6.28,3.39 6.43,3.78 6.59,4.18 6.65,4.60 6.71,5.02 6.66,5.44 6.62,5.86 6.47,6.26 6.33,6.66 6.09,7.01 5.86,7.37 5.54,7.65 5.23,7.94 4.86,8.14 4.48,8.35 4.07,8.45 3.66,8.56 3.24,8.57 2.81,8.58 2.40,8.48 1.99,8.39 1.61,8.19 1.23,8.00 0.91,7.73 0.58,7.45 -0.81,4.42 -2.22,1.39 -2.38,1.00 -2.55,0.61 -2.58,0.18 -2.61,-0.23 -2.51,-0.64 -2.40,-1.05 -2.17,-1.41 -1.94,-1.76 -1.60,-2.03 -1.27,-2.29 -0.87,-2.44 -0.47,-2.58 -0.04,-2.59 0.37,-2.59 0.78,-2.47 1.18,-2.34 1.52,-2.09 1.87,-1.84 2.11,-1.49 2.36,-1.14 2.48,-0.74 2.60,-0.33 2.59,0.09 2.57,0.51 2.42,0.91 2.27,1.31 2.00,1.64 1.73,1.96 1.37,2.19 1.01,2.42 0.60,2.52 0.19,2.61 -0.23,2.58 -0.65,2.54 -1.04,2.37 -1.43,2.20 -1.74,1.91 -2.06,1.62 -2.26,1.25 -2.47,0.88 -2.54,0.46 -2.62,0.04 -2.56,-0.37 -2.50,-0.79 -2.31,-1.17 -2.12,-1.54 -1.81,-1.84 -1.51,-2.14 -1.13,-2.33 -0.75,-2.51 -0.32,-2.57 0.09,-2.62 0.50,-2.54 0.92,-2.45 1.29,-2.24 1.66,-2.03 1.94,-1.71 2.22,-1.39 2.22,-1.39 2.22,-1.39 4.00,0.65 5.78,2.70 6.03,3.04 6.28,3.39 6.43,3.78 6.59,4.18 6.65,4.60 6.71,5.02 6.66,5.44 6.62,5.86 6.47,6.26 6.33,6.66 6.09,7.01 5.86,7.37 5.54,7.65 5.23,7.94 4.86,8.14 4.48,8.35 4.07,8.45 3.66,8.56 3.24,8.57 2.81,8.58 2.40,8.48 1.99,8.39 1.61,8.19 1.23,8.00 0.91,7.73 0.58,7.45 -0.92,5.85 -2.44,4.24 -2.92,2.58 -3.39,0.92 -3.45,0.50 -3.52,0.08 -3.48,-0.33 -3.43,-0.75 -3.29,-1.15 -3.15,-1.55 -2.92,-1.91 -2.69,-2.27 -2.38,-2.55 -2.07,-2.84 -1.70,-3.05 -1.32,-3.26 -0.91,-3.37 -0.51,-3.48 -0.08,-3.49 0.33,-3.50 0.75,-3.41 1.16,-3.32 1.54,-3.13 1.92,-2.94 2.25,-2.67 2.57,-2.39 2.82,-2.05 3.07,-1.71 3.23,-1.31 3.39,-0.92 3.39,-0.92 L 3.39,-0.92 Z"></path></g><g transform="translate(63 35) rotate(0 1.75 3.5)" stroke="none"><path fill="#1e1e1e" d="M 3.43,0.79 Q 3.43,0.79 3.00,2.63 2.57,4.47 3.10,4.31 3.63,4.14 3.98,3.89 4.32,3.64 4.73,3.52 5.14,3.39 5.56,3.40 5.98,3.41 6.38,3.56 6.78,3.71 7.11,3.97 7.45,4.24 7.68,4.59 7.91,4.95 8.01,5.36 8.11,5.78 8.08,6.20 8.05,6.62 7.88,7.01 7.71,7.41 7.43,7.72 7.14,8.04 6.78,8.25 6.41,8.46 5.99,8.54 5.57,8.62 5.15,8.56 4.73,8.51 4.35,8.32 3.97,8.13 3.67,7.83 3.36,7.53 3.18,7.15 2.99,6.77 2.93,6.35 2.87,5.93 2.95,5.51 3.03,5.09 3.24,4.72 3.44,4.35 3.76,4.07 4.08,3.78 4.47,3.62 4.86,3.45 5.28,3.41 5.70,3.38 6.12,3.48 6.53,3.58 6.89,3.81 7.25,4.04 7.51,4.37 7.78,4.70 7.93,5.10 8.07,5.50 8.09,5.92 8.10,6.34 7.97,6.75 7.85,7.16 7.60,7.50 7.36,7.85 7.36,7.85 7.36,7.85 2.90,8.92 -1.55,9.99 -2.92,6.49 -4.29,2.99 -3.86,1.10 -3.43,-0.79 -3.28,-1.19 -3.14,-1.59 -2.90,-1.94 -2.67,-2.29 -2.35,-2.58 -2.04,-2.86 -1.67,-3.07 -1.29,-3.27 -0.88,-3.38 -0.47,-3.48 -0.05,-3.49 0.37,-3.50 0.78,-3.40 1.20,-3.31 1.57,-3.11 1.95,-2.92 2.27,-2.65 2.60,-2.37 2.84,-2.02 3.09,-1.68 3.25,-1.28 3.40,-0.89 3.46,-0.47 3.52,-0.05 3.47,0.37 3.43,0.79 3.43,0.79 L 3.43,0.79 Z"></path></g><g transform="translate(64.5 35) rotate(0 2.5 4)" stroke="none"><path fill="#1e1e1e" d="M 1.81,-3.02 Q 1.81,-3.02 3.27,-2.13 4.74,-1.24 6.53,1.69 8.31,4.63 7.36,7.39 6.41,10.15 3.04,11.14 -0.33,12.13 -1.92,9.69 -3.51,7.25 -3.06,3.62 -2.62,0.00 -2.55,-0.41 -2.48,-0.83 -2.29,-1.21 -2.09,-1.58 -1.78,-1.88 -1.47,-2.17 -1.08,-2.35 -0.70,-2.53 -0.28,-2.57 0.14,-2.62 0.55,-2.53 0.97,-2.44 1.33,-2.22 1.69,-2.00 1.97,-1.67 2.24,-1.35 2.40,-0.96 2.56,-0.56 2.58,-0.14 2.61,0.28 2.49,0.69 2.38,1.10 2.14,1.45 1.90,1.80 1.56,2.06 1.23,2.32 0.82,2.45 0.42,2.59 0.00,2.59 -0.42,2.59 -0.82,2.45 -1.22,2.32 -1.56,2.06 -1.90,1.80 -2.14,1.45 -2.38,1.10 -2.49,0.69 -2.61,0.28 -2.58,-0.13 -2.56,-0.56 -2.40,-0.95 -2.25,-1.35 -1.97,-1.67 -1.70,-2.00 -1.33,-2.22 -0.97,-2.43 -0.55,-2.53 -0.14,-2.62 0.27,-2.57 0.70,-2.53 1.08,-2.35 1.47,-2.17 1.78,-1.88 2.09,-1.59 2.28,-1.21 2.48,-0.83 2.55,-0.42 2.62,-0.00 2.62,-0.00 2.62,-0.00 1.81,2.34 1.00,4.69 -0.40,3.85 -1.81,3.02 -2.14,2.75 -2.48,2.49 -2.74,2.16 -3.00,1.83 -3.18,1.44 -3.35,1.05 -3.43,0.64 -3.51,0.22 -3.49,-0.19 -3.46,-0.62 -3.34,-1.02 -3.21,-1.43 -2.99,-1.79 -2.77,-2.16 -2.48,-2.46 -2.18,-2.76 -1.81,-2.98 -1.45,-3.20 -1.05,-3.33 -0.64,-3.46 -0.22,-3.48 0.20,-3.51 0.61,-3.44 1.03,-3.36 1.42,-3.19 1.81,-3.02 1.81,-3.02 L 1.81,-3.02 Z"></path></g><g transform="translate(66.5 38) rotate(0 -2.25 -2.25)" stroke="none"><path fill="#1e1e1e" d="M -3.48,-0.49 Q -3.48,-0.49 -3.33,-1.52 -3.18,-2.55 -2.98,-2.96 -2.78,-3.36 -2.67,-3.77 -2.56,-4.18 -2.36,-4.55 -2.15,-4.92 -1.87,-5.24 -1.58,-5.55 -1.22,-5.78 -0.87,-6.02 -0.47,-6.16 -0.07,-6.30 0.34,-6.34 0.77,-6.38 1.19,-6.32 1.61,-6.26 2.00,-6.11 2.39,-5.95 2.74,-5.70 3.08,-5.45 3.36,-5.13 3.63,-4.80 3.82,-4.42 4.01,-4.04 4.10,-3.63 4.20,-3.21 4.19,-2.79 4.18,-2.36 3.81,0.63 3.43,3.64 1.09,5.09 -1.24,6.54 -4.19,5.30 -7.14,4.06 -8.11,0.80 -9.09,-2.46 -8.01,-5.64 -6.94,-8.83 -3.27,-8.99 0.40,-9.15 1.47,-4.90 2.54,-0.65 2.58,-0.22 2.61,0.19 2.51,0.60 2.41,1.02 2.19,1.38 1.96,1.74 1.63,2.00 1.30,2.27 0.90,2.42 0.51,2.57 0.08,2.59 -0.33,2.60 -0.74,2.48 -1.15,2.36 -1.49,2.11 -1.84,1.86 -2.09,1.52 -2.34,1.18 -2.47,0.77 -2.60,0.37 -2.59,-0.05 -2.58,-0.47 -2.43,-0.87 -2.29,-1.27 -2.03,-1.61 -1.76,-1.94 -1.40,-2.17 -1.05,-2.40 -0.64,-2.51 -0.22,-2.61 0.19,-2.58 0.61,-2.55 1.00,-2.38 1.40,-2.22 1.71,-1.94 2.03,-1.65 2.24,-1.28 2.45,-0.92 2.54,-0.50 2.62,-0.08 2.57,0.33 2.51,0.75 2.32,1.13 2.14,1.51 1.84,1.82 1.54,2.12 1.16,2.31 0.78,2.50 0.36,2.56 -0.05,2.62 -0.47,2.54 -0.89,2.47 -1.26,2.26 -1.63,2.05 -1.91,1.74 -2.20,1.42 -2.37,1.03 -2.54,0.64 -2.54,0.64 -2.54,0.65 -2.66,-1.35 -2.78,-3.36 -2.67,-3.77 -2.56,-4.18 -2.36,-4.55 -2.15,-4.92 -1.87,-5.24 -1.58,-5.55 -1.22,-5.78 -0.87,-6.02 -0.47,-6.16 -0.07,-6.30 0.34,-6.34 0.77,-6.38 1.19,-6.32 1.61,-6.26 2.00,-6.11 2.39,-5.95 2.74,-5.70 3.08,-5.45 3.36,-5.13 3.63,-4.80 3.82,-4.42 4.01,-4.04 4.10,-3.63 4.20,-3.21 4.19,-2.79 4.18,-2.36 3.97,-1.91 3.75,-1.46 3.62,-0.48 3.48,0.49 3.37,0.90 3.26,1.31 3.06,1.68 2.85,2.06 2.56,2.37 2.27,2.68 1.92,2.91 1.57,3.15 1.17,3.29 0.77,3.43 0.34,3.47 -0.07,3.52 -0.49,3.46 -0.91,3.40 -1.30,3.24 -1.70,3.08 -2.04,2.83 -2.39,2.58 -2.66,2.26 -2.94,1.93 -3.12,1.55 -3.31,1.17 -3.41,0.76 -3.50,0.35 -3.49,-0.07 -3.48,-0.49 -3.48,-0.49 L -3.48,-0.49 Z"></path></g><g transform="translate(64 33.5) rotate(0 2.75 2.25)" stroke="none"><path fill="#1e1e1e" d="M 0,-3.52 Q 0,-3.52 1.38,-3.50 2.76,-3.47 5.27,-2.03 7.78,-0.58 7.72,3.44 7.67,7.47 7.37,7.78 7.08,8.09 6.71,8.29 6.33,8.49 5.91,8.55 5.49,8.62 5.07,8.55 4.65,8.48 4.28,8.28 3.90,8.08 3.61,7.78 3.32,7.47 3.14,7.08 2.96,6.69 2.92,6.27 2.87,5.85 2.96,5.43 3.06,5.02 3.28,4.66 3.50,4.29 3.82,4.02 4.14,3.74 4.54,3.59 4.93,3.43 5.36,3.41 5.78,3.38 6.19,3.50 6.60,3.61 6.95,3.85 7.30,4.09 7.56,4.43 7.82,4.77 7.95,5.17 8.09,5.57 8.09,6.00 8.09,6.42 7.95,6.83 7.81,7.23 7.56,7.57 7.30,7.90 6.95,8.14 6.59,8.38 6.18,8.49 5.78,8.61 5.35,8.58 4.93,8.56 4.53,8.40 4.14,8.24 3.81,7.97 3.49,7.69 3.27,7.33 3.05,6.96 2.96,6.55 2.87,6.13 2.92,5.71 2.97,5.29 3.14,4.90 3.32,4.52 3.32,4.52 3.32,4.52 2.86,4.00 2.40,3.47 1.20,3.50 0,3.52 -0.42,3.47 -0.84,3.41 -1.23,3.26 -1.63,3.11 -1.98,2.87 -2.33,2.63 -2.61,2.31 -2.89,2.00 -3.09,1.62 -3.29,1.24 -3.39,0.83 -3.49,0.42 -3.49,-0.00 -3.49,-0.42 -3.39,-0.83 -3.29,-1.24 -3.09,-1.62 -2.89,-2.00 -2.61,-2.31 -2.33,-2.63 -1.98,-2.87 -1.63,-3.11 -1.23,-3.26 -0.84,-3.41 -0.42,-3.47 0.00,-3.52 0.00,-3.52 L 0,-3.52 Z"></path></g><g transform="translate(68 32.5) rotate(0 -1.75 5.5)" stroke="none"><path fill="#1e1e1e" d="M 3.51,0.23 Q 3.51,0.23 3.37,2.39 3.22,4.54 2.77,7.51 2.31,10.47 0.33,12.38 -1.63,14.30 -3.64,13.50 -5.65,12.71 -5.88,10.41 -6.12,8.11 -6.07,7.69 -6.02,7.27 -5.84,6.88 -5.65,6.50 -5.36,6.19 -5.06,5.89 -4.69,5.69 -4.31,5.50 -3.89,5.43 -3.47,5.37 -3.05,5.44 -2.63,5.51 -2.26,5.72 -1.88,5.92 -1.59,6.23 -1.31,6.54 -1.13,6.93 -0.96,7.32 -0.92,7.74 -0.87,8.16 -0.97,8.58 -1.07,8.99 -1.29,9.35 -1.51,9.72 -1.84,9.99 -2.16,10.26 -2.56,10.41 -2.96,10.57 -3.38,10.58 -3.81,10.60 -4.21,10.49 -4.62,10.37 -4.97,10.13 -5.32,9.88 -5.57,9.54 -5.83,9.20 -5.96,8.80 -6.09,8.39 -6.09,7.97 -6.08,7.54 -5.94,7.14 -5.80,6.74 -5.54,6.40 -5.28,6.07 -4.93,5.83 -4.57,5.60 -4.16,5.49 -3.75,5.38 -3.33,5.41 -2.90,5.44 -2.51,5.60 -2.12,5.76 -1.80,6.04 -1.48,6.32 -1.26,6.68 -1.04,7.05 -0.96,7.46 -0.87,7.88 -0.87,7.88 -0.87,7.88 -2.63,8.13 -4.38,8.37 -4.09,6.22 -3.80,4.07 -3.65,1.92 -3.51,-0.23 -3.43,-0.65 -3.35,-1.06 -3.17,-1.45 -3.00,-1.84 -2.73,-2.17 -2.47,-2.50 -2.13,-2.76 -1.80,-3.02 -1.41,-3.19 -1.02,-3.36 -0.60,-3.44 -0.19,-3.51 0.23,-3.48 0.65,-3.46 1.06,-3.33 1.46,-3.20 1.82,-2.98 2.18,-2.75 2.48,-2.45 2.78,-2.15 3.00,-1.79 3.22,-1.42 3.34,-1.01 3.46,-0.61 3.49,-0.18 3.51,0.23 3.51,0.23 L 3.51,0.23 Z"></path></g><g transform="translate(64 35.5) rotate(0 -0.5 3.5)" stroke="none"><path fill="#1e1e1e" d="M 2.81,2.11 Q 2.81,2.11 1.97,3.21 1.14,4.30 1.91,4.88 2.69,5.46 3.08,5.64 3.46,5.82 3.77,6.11 4.08,6.40 4.28,6.77 4.48,7.15 4.55,7.57 4.62,7.99 4.55,8.41 4.49,8.83 4.29,9.20 4.09,9.58 3.78,9.87 3.48,10.16 3.09,10.34 2.71,10.52 2.28,10.57 1.86,10.62 1.45,10.53 1.03,10.44 0.67,10.22 0.30,10.00 0.02,9.68 -0.24,9.36 -0.40,8.96 -0.56,8.57 -0.58,8.14 -0.61,7.72 -0.49,7.31 -0.38,6.90 -0.14,6.55 0.08,6.19 0.42,5.94 0.76,5.68 1.16,5.54 1.56,5.40 1.99,5.40 2.41,5.40 2.82,5.54 3.22,5.67 3.56,5.93 3.90,6.18 4.14,6.53 4.38,6.88 4.49,7.29 4.61,7.70 4.58,8.13 4.56,8.55 4.41,8.95 4.25,9.34 3.98,9.67 3.70,9.99 3.34,10.21 2.97,10.43 2.56,10.52 2.15,10.62 1.72,10.57 1.30,10.53 1.30,10.53 1.30,10.53 -1.92,8.63 -5.14,6.72 -4.86,3.50 -4.59,0.29 -3.70,-0.91 -2.81,-2.11 -2.52,-2.41 -2.23,-2.72 -1.87,-2.95 -1.51,-3.18 -1.11,-3.31 -0.70,-3.45 -0.28,-3.48 0.13,-3.51 0.55,-3.45 0.97,-3.38 1.36,-3.21 1.75,-3.05 2.09,-2.79 2.43,-2.54 2.70,-2.21 2.97,-1.88 3.15,-1.50 3.33,-1.11 3.42,-0.70 3.51,-0.28 3.49,0.13 3.47,0.56 3.35,0.96 3.24,1.37 3.02,1.74 2.81,2.11 2.81,2.11 L 2.81,2.11 Z"></path></g><g transform="translate(62 39.5) rotate(0 1.75 2.5)" stroke="none"><path fill="#1e1e1e" d="M 3.45,-0.69 Q 3.45,-0.69 3.55,0.46 3.66,1.61 4.78,1.68 5.90,1.76 6.21,2.05 6.52,2.34 6.75,2.69 6.99,3.05 7.13,3.45 7.27,3.85 7.31,4.27 7.35,4.70 7.29,5.12 7.23,5.54 7.07,5.93 6.91,6.32 6.66,6.67 6.41,7.01 6.08,7.28 5.76,7.56 5.38,7.75 5.00,7.93 4.58,8.03 4.17,8.12 3.74,8.11 3.32,8.10 2.91,7.98 2.50,7.87 2.13,7.67 1.76,7.46 -0.12,4.57 -2.02,1.67 -2.23,1.31 -2.45,0.94 -2.53,0.52 -2.62,0.11 -2.57,-0.30 -2.52,-0.73 -2.34,-1.11 -2.15,-1.49 -1.86,-1.80 -1.56,-2.10 -1.18,-2.30 -0.81,-2.49 -0.39,-2.56 0.02,-2.62 0.44,-2.55 0.86,-2.47 1.23,-2.27 1.61,-2.07 1.90,-1.76 2.19,-1.44 2.36,-1.06 2.53,-0.67 2.57,-0.25 2.62,0.17 2.52,0.58 2.42,0.99 2.20,1.36 1.98,1.72 1.65,1.99 1.32,2.26 0.93,2.41 0.53,2.57 0.11,2.58 -0.31,2.60 -0.72,2.48 -1.12,2.37 -1.47,2.12 -1.82,1.88 -2.08,1.54 -2.33,1.20 -2.46,0.79 -2.59,0.39 -2.59,-0.02 -2.58,-0.45 -2.44,-0.85 -2.30,-1.25 -2.04,-1.59 -1.78,-1.92 -1.43,-2.16 -1.07,-2.39 -0.66,-2.50 -0.25,-2.61 0.16,-2.58 0.59,-2.55 0.98,-2.39 1.37,-2.23 1.70,-1.95 2.02,-1.67 2.02,-1.67 2.02,-1.67 3.96,0.04 5.90,1.76 6.21,2.05 6.52,2.34 6.75,2.69 6.99,3.05 7.13,3.45 7.27,3.85 7.31,4.27 7.35,4.70 7.29,5.12 7.23,5.54 7.07,5.93 6.91,6.32 6.66,6.67 6.41,7.01 6.08,7.28 5.76,7.56 5.38,7.75 5.00,7.93 4.58,8.03 4.17,8.12 3.74,8.11 3.32,8.10 2.91,7.98 2.50,7.87 2.13,7.67 1.76,7.46 -0.37,5.80 -2.51,4.13 -2.98,2.41 -3.45,0.69 -3.48,0.26 -3.51,-0.15 -3.44,-0.57 -3.37,-0.99 -3.21,-1.38 -3.04,-1.77 -2.78,-2.11 -2.53,-2.45 -2.20,-2.71 -1.87,-2.98 -1.48,-3.16 -1.10,-3.34 -0.68,-3.42 -0.26,-3.51 0.15,-3.49 0.57,-3.47 0.98,-3.35 1.39,-3.23 1.76,-3.02 2.12,-2.80 2.43,-2.51 2.73,-2.21 2.96,-1.85 3.18,-1.49 3.32,-1.09 3.45,-0.69 3.45,-0.69 L 3.45,-0.69 Z"></path></g><g transform="translate(28 59) rotate(0 26.5 1.5)" stroke="none"><path fill="#1e1e1e" d="M 2.98,-1.86 Q 2.98,-1.86 3.70,-0.72 4.41,0.42 6.14,1.92 7.87,3.42 10.05,4.75 12.24,6.08 14.50,7.37 16.77,8.66 18.92,9.05 21.08,9.43 23.53,9.45 25.99,9.47 28.14,9.47 30.30,9.47 32.53,8.81 34.75,8.16 37.01,7.12 39.26,6.08 40.95,4.60 42.65,3.12 44.28,1.36 45.92,-0.39 47.21,-2.59 48.50,-4.78 49.68,-7.42 50.87,-10.05 50.95,-10.47 51.03,-10.89 51.23,-11.26 51.44,-11.63 51.76,-11.92 52.07,-12.20 52.46,-12.37 52.85,-12.54 53.27,-12.58 53.70,-12.61 54.11,-12.51 54.52,-12.41 54.88,-12.19 55.24,-11.96 55.51,-11.63 55.78,-11.30 55.92,-10.90 56.07,-10.50 56.09,-10.08 56.10,-9.65 55.98,-9.24 55.85,-8.84 55.61,-8.49 55.36,-8.15 55.02,-7.90 54.67,-7.65 54.27,-7.52 53.86,-7.39 53.44,-7.40 53.01,-7.41 52.61,-7.56 52.21,-7.70 51.88,-7.97 51.55,-8.23 51.32,-8.59 51.09,-8.95 50.98,-9.36 50.88,-9.77 50.91,-10.19 50.94,-10.62 51.11,-11.01 51.28,-11.40 51.56,-11.72 51.84,-12.04 52.21,-12.25 52.58,-12.46 53.00,-12.54 53.41,-12.62 53.83,-12.56 54.26,-12.51 54.64,-12.32 55.02,-12.13 55.32,-11.84 55.62,-11.54 55.81,-11.16 56.00,-10.78 56.06,-10.36 56.12,-9.93 56.12,-9.94 56.12,-9.94 55.54,-5.95 54.95,-1.96 54.01,0.01 53.08,1.98 51.14,4.14 49.20,6.30 47.68,7.99 46.16,9.67 43.99,11.16 41.82,12.64 39.79,13.59 37.76,14.53 35.50,15.31 33.24,16.09 30.52,16.30 27.80,16.52 25.62,16.51 23.45,16.51 21.26,16.44 19.07,16.38 16.67,15.84 14.26,15.30 12.14,14.20 10.02,13.11 7.66,11.76 5.29,10.41 3.43,8.80 1.56,7.18 0.01,5.68 -1.54,4.17 -2.26,3.02 -2.98,1.86 -3.16,1.48 -3.34,1.09 -3.42,0.68 -3.51,0.26 -3.49,-0.15 -3.47,-0.58 -3.35,-0.99 -3.23,-1.39 -3.01,-1.76 -2.80,-2.13 -2.50,-2.43 -2.21,-2.74 -1.85,-2.96 -1.49,-3.19 -1.08,-3.32 -0.68,-3.45 -0.26,-3.48 0.16,-3.51 0.57,-3.44 0.99,-3.37 1.38,-3.20 1.77,-3.04 2.11,-2.78 2.45,-2.52 2.72,-2.19 2.98,-1.86 2.98,-1.86 L 2.98,-1.86 Z"></path></g></svg>