<?xml version="1.0" standalone="no"?>
<!DOCTYPE svg PUBLIC "-//W3C//DTD SVG 1.1//EN" "http://www.w3.org/Graphics/SVG/1.1/DTD/svg11.dtd">
<svg version="1.1" xmlns="http://www.w3.org/2000/svg" viewBox="0 0 95.5 84" width="191" height="168"><!-- svg-source:excalidraw --><metadata></metadata><defs><style class="style-fonts">
      </style></defs><g transform="translate(43.5 72.5) rotate(0 4.25 -30.5)" stroke="none"><path fill="#1e1e1e" d="M -3.52,0 Q -3.52,0 -3.52,-1.72 -3.52,-3.45 -3.37,-6.28 -3.22,-9.12 -3.02,-12.04 -2.81,-14.97 -2.73,-18.13 -2.64,-21.30 -2.61,-24.66 -2.57,-28.02 -2.56,-31.32 -2.54,-34.62 -2.53,-37.46 -2.53,-40.30 -2.73,-44.55 -2.93,-48.80 -2.81,-52.30 -2.70,-55.79 -2.37,-58.18 -2.03,-60.57 -0.60,-62.91 0.83,-65.25 4.06,-64.74 7.29,-64.23 9.54,-60.92 11.79,-57.62 12.94,-55.08 14.08,-52.54 15.28,-49.75 16.48,-46.97 17.77,-44.66 19.06,-42.35 20.33,-40.19 21.61,-38.04 22.74,-36.08 23.87,-34.13 24.98,-31.91 26.09,-29.70 27.13,-27.46 28.18,-25.23 29.75,-22.26 31.33,-19.29 32.95,-16.95 34.57,-14.62 34.88,-14.06 35.19,-13.50 35.39,-13.13 35.59,-12.75 35.70,-12.34 35.80,-11.93 35.81,-11.51 35.81,-11.08 35.72,-10.67 35.62,-10.26 35.43,-9.88 35.24,-9.50 34.96,-9.18 34.68,-8.86 34.33,-8.61 33.99,-8.37 33.59,-8.21 33.20,-8.06 32.78,-8.00 32.35,-7.94 31.93,-7.99 31.51,-8.04 31.11,-8.18 30.71,-8.33 30.36,-8.56 30.01,-8.80 29.72,-9.12 29.44,-9.43 27.39,-10.58 25.35,-11.73 22.14,-13.52 18.93,-15.30 16.37,-16.96 13.80,-18.62 11.11,-20.50 8.41,-22.38 5.97,-23.80 3.53,-25.22 1.25,-25.84 -1.03,-26.46 -3.47,-26.73 -5.91,-27.01 -8.52,-27.14 -11.13,-27.27 -13.88,-27.63 -16.62,-27.99 -19.22,-28.44 -21.83,-28.88 -24.93,-29.33 -28.03,-29.79 -30.32,-30.08 -32.61,-30.37 -33.12,-30.43 -33.64,-30.48 -34.05,-30.60 -34.45,-30.73 -34.82,-30.94 -35.19,-31.16 -35.49,-31.46 -35.79,-31.75 -36.02,-32.11 -36.24,-32.47 -36.37,-32.88 -36.50,-33.28 -36.53,-33.71 -36.56,-34.13 -36.49,-34.55 -36.42,-34.97 -36.25,-35.36 -36.08,-35.74 -35.82,-36.08 -35.56,-36.42 -35.23,-36.68 -34.90,-36.95 -34.51,-37.13 -34.13,-37.31 -33.71,-37.39 -33.29,-37.47 -32.87,-37.45 -32.44,-37.42 -29.59,-38.69 -26.73,-39.96 -24.33,-40.66 -21.94,-41.37 -19.01,-42.11 -16.09,-42.84 -13.05,-43.71 -10.02,-44.58 -7.03,-45.52 -4.03,-46.45 -1.04,-47.43 1.95,-48.40 5.10,-49.14 8.25,-49.88 10.91,-50.60 13.57,-51.32 16.05,-52.17 18.53,-53.02 22.14,-54.44 25.76,-55.87 29.35,-56.67 32.95,-57.48 35.15,-57.81 37.35,-58.14 40.21,-58.04 43.07,-57.93 44.26,-55.86 45.45,-53.78 44.32,-50.99 43.19,-48.20 41.51,-46.52 39.83,-44.84 37.32,-42.48 34.81,-40.12 32.94,-38.78 31.08,-37.44 28.12,-35.32 25.17,-33.21 23.77,-31.01 22.37,-28.81 21.00,-26.50 19.62,-24.19 18.11,-21.70 16.59,-19.21 14.84,-16.49 13.09,-13.76 11.05,-11.49 9.02,-9.21 7.66,-7.54 6.29,-5.87 5.34,-3.84 4.39,-1.81 3.48,-0.62 2.56,0.56 2.40,0.95 2.25,1.35 1.97,1.67 1.70,2.00 1.33,2.22 0.97,2.44 0.55,2.53 0.14,2.62 -0.28,2.57 -0.70,2.53 -1.08,2.35 -1.47,2.17 -1.78,1.88 -2.09,1.58 -2.29,1.21 -2.48,0.83 -2.55,0.41 -2.62,-0.00 -2.55,-0.41 -2.48,-0.83 -2.28,-1.21 -2.09,-1.59 -1.78,-1.88 -1.47,-2.17 -1.08,-2.35 -0.70,-2.53 -0.27,-2.57 0.14,-2.62 0.55,-2.53 0.97,-2.43 1.33,-2.22 1.70,-2.00 1.97,-1.67 2.25,-1.35 2.40,-0.95 2.56,-0.56 2.58,-0.13 2.61,0.28 2.49,0.69 2.38,1.10 2.14,1.45 1.90,1.80 1.56,2.06 1.22,2.32 0.82,2.45 0.42,2.59 -0.00,2.59 -0.42,2.59 -0.82,2.45 -1.23,2.32 -1.56,2.06 -1.90,1.80 -2.14,1.45 -2.38,1.10 -2.49,0.69 -2.61,0.28 -2.58,-0.14 -2.56,-0.56 -2.56,-0.56 -2.56,-0.56 -2.37,-2.38 -2.17,-4.21 -1.13,-6.41 -0.09,-8.62 1.77,-11.18 3.63,-13.75 5.02,-15.49 6.40,-17.22 7.90,-18.78 9.40,-20.35 10.65,-22.86 11.89,-25.37 13.45,-27.88 15.00,-30.38 16.09,-32.23 17.17,-34.08 19.06,-36.47 20.95,-38.85 23.97,-41.01 26.99,-43.17 29.81,-45.40 32.64,-47.62 34.65,-49.63 36.67,-51.64 38.88,-51.76 41.08,-51.88 38.80,-51.34 36.52,-50.79 33.89,-50.38 31.26,-49.96 28.09,-49.00 24.93,-48.04 22.87,-47.20 20.80,-46.35 18.10,-45.43 15.40,-44.51 12.62,-43.77 9.85,-43.03 6.99,-42.36 4.12,-41.70 1.09,-40.71 -1.93,-39.73 -5.01,-38.77 -8.09,-37.81 -11.23,-36.91 -14.36,-36.01 -17.16,-35.31 -19.96,-34.61 -24.01,-33.35 -28.06,-32.10 -30.85,-31.29 -33.64,-30.48 -34.05,-30.60 -34.45,-30.73 -34.82,-30.94 -35.19,-31.16 -35.49,-31.46 -35.79,-31.75 -36.02,-32.11 -36.24,-32.47 -36.37,-32.88 -36.50,-33.28 -36.53,-33.71 -36.56,-34.13 -36.49,-34.55 -36.42,-34.97 -36.25,-35.35 -36.08,-35.74 -35.82,-36.08 -35.56,-36.42 -35.23,-36.68 -34.90,-36.95 -34.51,-37.13 -34.13,-37.31 -33.71,-37.39 -33.29,-37.47 -32.87,-37.45 -32.44,-37.42 -32.14,-37.40 -31.83,-37.37 -29.54,-37.08 -27.25,-36.79 -23.94,-36.31 -20.64,-35.82 -18.16,-35.40 -15.68,-34.97 -13.23,-34.64 -10.77,-34.30 -7.91,-34.15 -5.05,-34.00 -2.06,-33.61 0.93,-33.22 3.99,-32.27 7.04,-31.32 9.74,-29.74 12.43,-28.16 15.03,-26.35 17.64,-24.53 21.84,-21.86 26.04,-19.19 28.68,-17.71 31.31,-16.22 33.25,-14.86 35.19,-13.50 35.39,-13.13 35.59,-12.75 35.70,-12.34 35.80,-11.93 35.81,-11.51 35.81,-11.08 35.72,-10.67 35.62,-10.26 35.43,-9.88 35.24,-9.50 34.96,-9.18 34.68,-8.86 34.33,-8.61 33.99,-8.37 33.59,-8.21 33.20,-8.06 32.78,-8.00 32.36,-7.94 31.93,-7.99 31.51,-8.04 31.11,-8.18 30.71,-8.33 30.36,-8.56 30.01,-8.80 29.72,-9.12 29.44,-9.43 28.92,-10.32 28.40,-11.22 26.85,-13.44 25.30,-15.66 23.54,-18.95 21.79,-22.25 20.79,-24.40 19.78,-26.56 18.78,-28.58 17.78,-30.59 16.66,-32.52 15.54,-34.45 14.22,-36.69 12.89,-38.94 11.45,-41.56 10.01,-44.18 8.83,-46.92 7.66,-49.65 6.04,-53.31 4.43,-56.98 4.24,-54.86 4.05,-52.74 4.14,-48.84 4.22,-44.94 4.36,-42.61 4.51,-40.28 4.50,-37.43 4.49,-34.59 4.48,-31.27 4.46,-27.95 4.42,-24.53 4.39,-21.11 4.30,-17.79 4.21,-14.47 4.00,-11.61 3.80,-8.75 3.66,-6.10 3.52,-3.44 3.52,-1.72 3.52,0 3.47,0.42 3.41,0.84 3.26,1.23 3.11,1.63 2.87,1.98 2.63,2.33 2.31,2.61 2.00,2.89 1.62,3.09 1.24,3.29 0.83,3.39 0.42,3.49 -0.00,3.49 -0.42,3.49 -0.83,3.39 -1.24,3.29 -1.62,3.09 -2.00,2.89 -2.31,2.61 -2.63,2.33 -2.87,1.98 -3.11,1.63 -3.26,1.23 -3.41,0.84 -3.47,0.42 -3.52,-0.00 -3.52,-0.00 L -3.52,0 Z"></path></g></svg>