<?xml version="1.0" standalone="no"?>
<!DOCTYPE svg PUBLIC "-//W3C//DTD SVG 1.1//EN" "http://www.w3.org/Graphics/SVG/1.1/DTD/svg11.dtd">
<svg version="1.1" xmlns="http://www.w3.org/2000/svg" viewBox="0 0 110 101" width="220" height="202"><!-- svg-source:excalidraw --><metadata></metadata><defs><style class="style-fonts">
      </style></defs><g transform="translate(40.5 88) rotate(0 14.5 -37.5)" stroke="none"><path fill="#1e1e1e" d="M -2.67,2.29 Q -2.67,2.29 -3.53,1.28 -4.40,0.27 -5.63,-1.83 -6.85,-3.94 -8.20,-5.82 -9.56,-7.71 -11.37,-10.21 -13.19,-12.71 -15.09,-15.55 -16.99,-18.39 -18.47,-20.50 -19.94,-22.61 -21.31,-24.28 -22.68,-25.94 -24.50,-28.57 -26.32,-31.20 -27.62,-34.19 -28.92,-37.18 -29.79,-39.81 -30.65,-42.45 -31.32,-44.96 -31.98,-47.48 -32.51,-49.55 -33.03,-51.63 -33.36,-53.93 -33.69,-56.23 -33.83,-59.11 -33.97,-61.99 -33.64,-64.68 -33.31,-67.37 -31.06,-70.67 -28.81,-73.98 -26.75,-75.74 -24.68,-77.50 -21.70,-78.42 -18.71,-79.33 -15.98,-80.07 -13.24,-80.80 -9.97,-80.90 -6.70,-81.00 -4.56,-81.21 -2.41,-81.42 0.11,-81.46 2.64,-81.50 5.14,-81.12 7.64,-80.75 10.01,-79.37 12.37,-77.99 14.41,-75.84 16.46,-73.69 17.66,-71.76 18.86,-69.84 19.57,-67.36 20.28,-64.89 20.62,-62.13 20.96,-59.37 20.99,-56.91 21.01,-54.45 21.02,-52.98 21.02,-51.52 20.97,-51.09 20.92,-50.67 20.76,-50.27 20.61,-49.88 20.37,-49.53 20.13,-49.18 19.81,-48.90 19.50,-48.62 19.12,-48.42 18.75,-48.22 18.33,-48.12 17.92,-48.02 17.50,-48.02 17.07,-48.02 16.66,-48.12 16.25,-48.22 15.87,-48.42 15.50,-48.61 15.18,-48.89 14.86,-49.18 14.62,-49.53 14.38,-49.87 14.23,-50.27 14.08,-50.67 14.02,-51.09 13.97,-51.51 14.48,-53.64 14.98,-55.76 16.58,-58.14 18.18,-60.52 20.00,-62.20 21.82,-63.87 23.83,-65.46 25.83,-67.05 27.58,-68.28 29.33,-69.50 32.32,-70.87 35.30,-72.25 37.74,-72.81 40.19,-73.37 42.84,-73.44 45.49,-73.51 47.85,-73.33 50.21,-73.15 52.53,-72.02 54.85,-70.88 56.57,-68.39 58.30,-65.90 59.14,-63.32 59.98,-60.74 60.74,-57.99 61.50,-55.24 61.94,-52.84 62.37,-50.44 62.68,-47.98 62.99,-45.51 62.35,-42.78 61.70,-40.05 60.51,-37.17 59.32,-34.30 57.75,-31.75 56.18,-29.20 54.77,-27.52 53.37,-25.84 50.71,-24.00 48.06,-22.16 45.53,-20.45 43.00,-18.73 40.74,-16.81 38.48,-14.89 36.40,-13.22 34.33,-11.55 32.59,-10.10 30.85,-8.64 28.17,-7.12 25.49,-5.60 23.03,-4.16 20.57,-2.73 18.76,-1.55 16.96,-0.38 15.02,1.11 13.07,2.60 10.84,3.66 8.61,4.72 6.45,5.49 4.29,6.26 3.86,6.26 3.44,6.26 3.03,6.15 2.62,6.05 2.24,5.85 1.87,5.65 1.55,5.37 1.23,5.08 0.99,4.73 0.76,4.38 0.61,3.98 0.46,3.59 0.41,3.16 0.36,2.74 0.41,2.32 0.47,1.90 0.62,1.50 0.77,1.11 1.02,0.76 1.26,0.41 1.58,0.13 1.90,-0.14 2.28,-0.33 2.65,-0.53 3.07,-0.63 3.48,-0.73 4.70,-0.53 5.92,-0.33 6.30,-0.13 6.68,0.06 6.99,0.34 7.31,0.62 7.55,0.97 7.79,1.32 7.94,1.72 8.09,2.11 8.14,2.54 8.19,2.96 8.14,3.38 8.09,3.80 7.94,4.20 7.79,4.59 7.55,4.94 7.31,5.29 6.99,5.57 6.67,5.85 6.29,6.05 5.92,6.25 5.50,6.35 5.09,6.45 4.67,6.45 4.24,6.45 3.83,6.35 3.42,6.24 1.00,4.23 -1.40,2.21 -1.72,1.93 -2.03,1.65 -2.25,1.28 -2.46,0.91 -2.54,0.50 -2.62,0.08 -2.56,-0.33 -2.51,-0.75 -2.32,-1.14 -2.14,-1.52 -1.84,-1.82 -1.54,-2.12 -1.16,-2.31 -0.78,-2.50 -0.36,-2.56 0.05,-2.62 0.47,-2.54 0.89,-2.46 1.26,-2.26 1.63,-2.05 1.92,-1.73 2.20,-1.42 2.37,-1.03 2.54,-0.64 2.58,-0.22 2.61,0.20 2.51,0.61 2.41,1.02 2.19,1.38 1.96,1.74 1.63,2.01 1.30,2.28 0.90,2.42 0.50,2.57 0.08,2.59 -0.34,2.60 -0.74,2.48 -1.15,2.35 -1.50,2.11 -1.84,1.86 -2.09,1.52 -2.34,1.17 -2.47,0.77 -2.60,0.36 -2.59,-0.05 -2.58,-0.48 -2.43,-0.88 -2.29,-1.28 -2.02,-1.61 -1.76,-1.94 -1.40,-2.17 -1.04,-2.40 -0.63,-2.51 -0.22,-2.61 0.19,-2.58 0.62,-2.55 1.01,-2.38 1.40,-2.21 1.40,-2.21 1.40,-2.21 3.66,-1.27 5.92,-0.33 6.30,-0.13 6.68,0.06 6.99,0.34 7.31,0.62 7.55,0.97 7.79,1.32 7.94,1.72 8.09,2.11 8.14,2.54 8.19,2.96 8.14,3.38 8.09,3.80 7.94,4.20 7.79,4.59 7.55,4.94 7.31,5.29 6.99,5.57 6.67,5.85 6.29,6.05 5.92,6.25 5.50,6.35 5.09,6.45 4.67,6.45 4.24,6.45 3.83,6.35 3.42,6.24 3.85,6.25 4.29,6.26 3.86,6.26 3.44,6.26 3.03,6.15 2.62,6.05 2.24,5.85 1.87,5.65 1.55,5.37 1.23,5.08 0.99,4.73 0.76,4.38 0.61,3.98 0.46,3.59 0.41,3.16 0.36,2.74 0.41,2.32 0.47,1.90 0.62,1.50 0.77,1.11 1.02,0.76 1.26,0.41 1.58,0.13 1.90,-0.14 2.28,-0.33 2.65,-0.53 3.07,-0.63 3.48,-0.73 4.42,-1.06 5.36,-1.39 7.69,-2.63 10.02,-3.87 12.30,-5.59 14.58,-7.31 16.70,-8.60 18.81,-9.88 21.59,-11.18 24.37,-12.48 26.17,-13.90 27.97,-15.31 30.05,-17.06 32.12,-18.81 34.50,-20.76 36.89,-22.72 38.74,-24.23 40.60,-25.74 42.63,-27.04 44.65,-28.33 46.59,-29.64 48.52,-30.95 49.88,-32.74 51.24,-34.53 52.57,-36.87 53.90,-39.22 54.65,-41.37 55.40,-43.52 55.63,-45.68 55.86,-47.84 55.36,-50.01 54.85,-52.18 54.29,-54.55 53.73,-56.92 53.01,-59.38 52.29,-61.85 51.29,-63.73 50.29,-65.62 47.90,-66.04 45.51,-66.47 42.98,-66.40 40.45,-66.33 37.92,-65.62 35.39,-64.90 33.11,-63.48 30.83,-62.07 28.68,-60.35 26.53,-58.64 24.78,-57.02 23.03,-55.40 22.02,-53.46 21.02,-51.52 20.97,-51.09 20.92,-50.67 20.76,-50.28 20.61,-49.88 20.37,-49.53 20.13,-49.18 19.82,-48.90 19.50,-48.62 19.12,-48.42 18.75,-48.22 18.33,-48.12 17.92,-48.02 17.50,-48.02 17.07,-48.02 16.66,-48.12 16.25,-48.22 15.87,-48.42 15.50,-48.61 15.18,-48.89 14.86,-49.18 14.62,-49.52 14.38,-49.87 14.23,-50.27 14.08,-50.67 14.02,-51.09 13.97,-51.51 13.97,-51.89 13.97,-52.27 13.96,-54.79 13.95,-57.30 13.86,-59.60 13.77,-61.90 13.34,-64.00 12.90,-66.10 11.53,-68.22 10.16,-70.33 8.21,-72.09 6.27,-73.84 3.27,-74.14 0.28,-74.43 -1.89,-74.36 -4.07,-74.29 -7.38,-74.10 -10.68,-73.90 -12.95,-73.54 -15.22,-73.18 -18.46,-72.07 -21.70,-70.95 -23.56,-69.17 -25.43,-67.39 -26.17,-64.78 -26.92,-62.18 -26.83,-59.78 -26.74,-57.37 -26.21,-54.34 -25.69,-51.31 -25.14,-49.18 -24.60,-47.05 -23.83,-44.57 -23.06,-42.10 -22.20,-39.70 -21.34,-37.30 -20.13,-34.92 -18.93,-32.54 -17.35,-30.55 -15.77,-28.55 -14.32,-26.66 -12.87,-24.77 -11.04,-22.09 -9.20,-19.41 -7.52,-16.90 -5.83,-14.39 -3.97,-11.94 -2.10,-9.50 -0.57,-6.90 0.95,-4.29 1.81,-3.29 2.67,-2.29 2.90,-1.93 3.14,-1.58 3.28,-1.18 3.43,-0.78 3.47,-0.36 3.52,0.05 3.46,0.47 3.40,0.89 3.24,1.29 3.09,1.68 2.84,2.03 2.59,2.37 2.27,2.65 1.95,2.93 1.57,3.12 1.19,3.31 0.78,3.40 0.36,3.50 -0.05,3.49 -0.48,3.48 -0.89,3.38 -1.30,3.27 -1.67,3.06 -2.04,2.86 -2.36,2.57 -2.67,2.29 -2.67,2.29 L -2.67,2.29 Z"></path></g></svg>