<?xml version="1.0" standalone="no"?>
<!DOCTYPE svg PUBLIC "-//W3C//DTD SVG 1.1//EN" "http://www.w3.org/Graphics/SVG/1.1/DTD/svg11.dtd">
<svg version="1.1" xmlns="http://www.w3.org/2000/svg" viewBox="0 0 155 122.5" width="310" height="245"><!-- svg-source:excalidraw --><metadata></metadata><defs><style class="style-fonts">
      </style></defs><g transform="translate(64.5 68.5) rotate(0 -27 -10.25)" stroke="none"><path fill="#1e1e1e" d="M -2.29,2.67 Q -2.29,2.67 -3.29,1.81 -4.30,0.94 -6.76,-0.78 -9.22,-2.52 -11.63,-3.40 -14.04,-4.29 -16.87,-5.48 -19.70,-6.67 -21.82,-7.62 -23.94,-8.58 -26.26,-9.29 -28.57,-10.00 -31.87,-11.38 -35.18,-12.76 -37.63,-13.65 -40.08,-14.54 -43.16,-15.11 -46.23,-15.68 -48.98,-16.01 -51.73,-16.33 -52.93,-16.65 -54.13,-16.97 -54.52,-17.12 -54.92,-17.28 -55.26,-17.52 -55.61,-17.76 -55.89,-18.09 -56.17,-18.41 -56.36,-18.78 -56.56,-19.16 -56.65,-19.58 -56.75,-19.99 -56.75,-20.41 -56.74,-20.84 -56.64,-21.25 -56.53,-21.66 -56.33,-22.03 -56.13,-22.41 -55.84,-22.72 -55.56,-23.04 -55.21,-23.27 -54.85,-23.51 -54.46,-23.66 -54.06,-23.81 -53.63,-23.85 -53.21,-23.90 -52.79,-23.84 -52.37,-23.79 -51.50,-23.67 -50.62,-23.55 -50.20,-23.58 -49.77,-23.61 -49.36,-23.51 -48.95,-23.40 -48.59,-23.17 -48.23,-22.94 -47.97,-22.61 -47.70,-22.28 -47.56,-21.88 -47.41,-21.48 -47.40,-21.06 -47.39,-20.63 -47.52,-20.23 -47.65,-19.82 -47.90,-19.48 -48.14,-19.13 -48.49,-18.88 -48.84,-18.64 -49.24,-18.51 -49.65,-18.39 -50.07,-18.40 -50.50,-18.42 -50.90,-18.57 -51.30,-18.71 -51.63,-18.98 -51.96,-19.25 -52.18,-19.61 -52.41,-19.97 -52.51,-20.38 -52.61,-20.79 -52.58,-21.21 -52.54,-21.64 -52.37,-22.03 -52.20,-22.42 -51.92,-22.73 -51.63,-23.05 -51.26,-23.26 -50.89,-23.46 -50.47,-23.54 -50.06,-23.62 -49.64,-23.56 -49.21,-23.50 -48.83,-23.31 -48.45,-23.12 -48.16,-22.82 -47.86,-22.52 -47.67,-22.14 -47.48,-21.76 -47.43,-21.34 -47.37,-20.91 -47.45,-20.50 -47.53,-20.08 -47.74,-19.71 -47.95,-19.34 -48.27,-19.06 -48.59,-18.78 -48.98,-18.61 -49.37,-18.44 -49.37,-18.44 -49.37,-18.44 -51.75,-17.70 -54.13,-16.97 -54.52,-17.12 -54.92,-17.28 -55.26,-17.52 -55.61,-17.76 -55.89,-18.09 -56.17,-18.41 -56.36,-18.78 -56.55,-19.16 -56.65,-19.57 -56.75,-19.99 -56.75,-20.41 -56.74,-20.84 -56.64,-21.25 -56.53,-21.66 -56.33,-22.03 -56.13,-22.41 -55.84,-22.72 -55.56,-23.04 -55.21,-23.27 -54.85,-23.51 -54.46,-23.66 -54.06,-23.81 -53.64,-23.85 -53.21,-23.90 -52.79,-23.84 -52.37,-23.79 -51.78,-23.57 -51.18,-23.35 -48.07,-22.98 -44.96,-22.61 -42.71,-22.17 -40.45,-21.72 -37.77,-21.05 -35.09,-20.38 -32.23,-19.12 -29.38,-17.86 -26.56,-16.85 -23.75,-15.84 -21.35,-14.93 -18.95,-14.02 -16.33,-12.76 -13.71,-11.51 -11.18,-10.68 -8.65,-9.86 -6.56,-8.78 -4.47,-7.69 -2.09,-6.04 0.27,-4.39 1.28,-3.53 2.29,-2.67 2.57,-2.36 2.86,-2.04 3.06,-1.67 3.27,-1.30 3.38,-0.89 3.48,-0.48 3.49,-0.05 3.50,0.36 3.40,0.78 3.31,1.19 3.12,1.57 2.93,1.95 2.65,2.27 2.37,2.59 2.03,2.84 1.68,3.09 1.29,3.24 0.89,3.40 0.47,3.46 0.05,3.52 -0.36,3.47 -0.78,3.43 -1.18,3.28 -1.58,3.14 -1.93,2.90 -2.29,2.67 -2.29,2.67 L -2.29,2.67 Z"></path></g><g transform="translate(66.5 74.5) rotate(0 -3 10.25)" stroke="none"><path fill="#1e1e1e" d="M -3.49,0.43 Q -3.49,0.43 -3.63,-0.69 -3.77,-1.82 -3.94,-1.93 -4.11,-2.04 -4.23,-2.45 -4.35,-2.86 -4.36,-3.28 -4.38,-3.70 -4.29,-4.12 -4.20,-4.54 -4.02,-4.92 -3.83,-5.30 -3.56,-5.63 -3.29,-5.96 -2.95,-6.21 -2.61,-6.46 -2.22,-6.63 -1.83,-6.79 -1.41,-6.85 -0.99,-6.92 -0.56,-6.88 -0.14,-6.85 0.25,-6.71 0.65,-6.57 1.01,-6.34 1.37,-6.12 1.66,-5.81 1.95,-5.50 2.16,-5.13 2.37,-4.76 2.21,-2.37 2.06,0.01 1.89,2.49 1.71,4.96 1.31,8.02 0.90,11.07 0.35,13.39 -0.18,15.72 -0.57,18.15 -0.95,20.59 -2.18,22.54 -3.41,24.48 -3.51,24.79 -3.61,25.09 -3.77,25.36 -3.94,25.63 -4.16,25.85 -4.39,26.07 -4.66,26.24 -4.93,26.40 -5.24,26.49 -5.54,26.58 -5.85,26.60 -6.17,26.62 -6.48,26.56 -6.79,26.50 -7.08,26.37 -7.37,26.23 -7.62,26.04 -7.86,25.84 -8.06,25.59 -8.25,25.34 -8.38,25.05 -8.51,24.76 -8.56,24.45 -8.62,24.14 -8.60,23.82 -8.58,23.50 -8.52,24.19 -8.47,24.88 -8.55,24.46 -8.62,24.04 -8.56,23.62 -8.50,23.20 -8.31,22.82 -8.11,22.44 -7.81,22.14 -7.51,21.85 -7.12,21.66 -6.74,21.48 -6.32,21.42 -5.90,21.37 -5.48,21.45 -5.07,21.54 -4.70,21.75 -4.33,21.96 -4.05,22.28 -3.77,22.60 -3.60,22.99 -3.44,23.39 -3.41,23.81 -3.38,24.23 -3.49,24.64 -3.59,25.06 -3.82,25.41 -4.06,25.77 -4.39,26.03 -4.72,26.29 -5.12,26.44 -5.53,26.58 -5.95,26.59 -6.37,26.59 -6.78,26.47 -7.18,26.34 -7.53,26.09 -7.87,25.83 -8.11,25.49 -8.36,25.14 -8.48,24.73 -8.60,24.32 -8.59,23.90 -8.57,23.47 -8.42,23.08 -8.27,22.68 -8.00,22.35 -7.73,22.02 -7.37,21.80 -7.01,21.57 -6.60,21.47 -6.18,21.38 -5.76,21.41 -5.34,21.45 -4.95,21.62 -4.56,21.80 -4.25,22.08 -3.93,22.37 -3.67,23.43 -3.41,24.48 -3.51,24.79 -3.61,25.09 -3.77,25.36 -3.94,25.63 -4.16,25.85 -4.39,26.07 -4.66,26.23 -4.93,26.40 -5.23,26.49 -5.54,26.58 -5.85,26.60 -6.17,26.62 -6.48,26.56 -6.79,26.50 -7.08,26.37 -7.37,26.23 -7.62,26.04 -7.86,25.84 -8.06,25.59 -8.25,25.34 -8.38,25.05 -8.51,24.76 -8.56,24.45 -8.62,24.14 -8.60,23.82 -8.58,23.51 -8.26,21.41 -7.94,19.30 -7.49,16.69 -7.03,14.07 -6.50,11.83 -5.97,9.59 -5.62,6.88 -5.27,4.17 -4.69,1.06 -4.11,-2.04 -4.23,-2.45 -4.35,-2.86 -4.36,-3.28 -4.38,-3.70 -4.29,-4.12 -4.20,-4.54 -4.02,-4.92 -3.83,-5.30 -3.56,-5.63 -3.29,-5.95 -2.95,-6.21 -2.61,-6.46 -2.22,-6.63 -1.83,-6.79 -1.41,-6.85 -0.99,-6.92 -0.56,-6.88 -0.14,-6.85 0.25,-6.71 0.65,-6.57 1.01,-6.34 1.37,-6.12 1.66,-5.81 1.95,-5.50 2.16,-5.13 2.37,-4.76 2.78,-3.76 3.19,-2.77 3.34,-1.60 3.49,-0.43 3.49,-0.01 3.49,0.41 3.39,0.82 3.29,1.23 3.10,1.61 2.90,1.99 2.62,2.30 2.34,2.62 1.99,2.87 1.64,3.11 1.25,3.26 0.85,3.41 0.43,3.46 0.01,3.52 -0.40,3.47 -0.83,3.42 -1.22,3.27 -1.62,3.12 -1.97,2.88 -2.32,2.64 -2.60,2.32 -2.89,2.01 -3.09,1.63 -3.28,1.26 -3.39,0.84 -3.49,0.43 -3.49,0.43 L -3.49,0.43 Z"></path></g><g transform="translate(10.5 51.5) rotate(0 67 -20.75)" stroke="none"><path fill="#1e1e1e" d="M -1.89,-2.97 Q -1.89,-2.97 -0.30,-3.98 1.28,-4.99 4.88,-6.28 8.47,-7.57 11.54,-8.28 14.62,-9.00 17.26,-9.53 19.89,-10.06 23.14,-10.78 26.38,-11.49 28.97,-11.91 31.56,-12.32 33.88,-12.85 36.20,-13.39 38.40,-13.97 40.59,-14.55 43.61,-15.38 46.64,-16.21 49.69,-16.87 52.74,-17.52 55.01,-17.84 57.27,-18.17 60.27,-19.54 63.28,-20.92 66.20,-21.89 69.12,-22.85 71.29,-23.69 73.47,-24.53 75.46,-25.48 77.45,-26.43 79.53,-27.25 81.60,-28.08 83.54,-29.01 85.47,-29.94 87.59,-30.86 89.71,-31.78 92.10,-32.69 94.49,-33.61 97.10,-34.52 99.71,-35.44 102.23,-36.21 104.76,-36.99 107.07,-37.52 109.38,-38.04 111.85,-38.56 114.32,-39.09 116.56,-39.75 118.79,-40.42 121.20,-41.02 123.61,-41.63 125.85,-42.23 128.08,-42.83 130.53,-42.45 132.98,-42.07 133.29,-42.09 133.61,-42.12 133.92,-42.07 134.23,-42.02 134.52,-41.89 134.81,-41.77 135.07,-41.58 135.32,-41.38 135.52,-41.14 135.72,-40.89 135.85,-40.61 135.99,-40.32 136.05,-40.01 136.11,-39.70 136.10,-39.38 136.09,-39.07 136.00,-38.76 135.91,-38.46 135.75,-38.19 135.59,-37.91 135.37,-37.68 135.15,-37.46 134.88,-37.29 134.61,-37.12 134.31,-37.02 134.01,-36.92 134.45,-37.10 134.89,-37.27 134.50,-37.11 134.11,-36.94 133.69,-36.91 133.26,-36.88 132.85,-36.98 132.44,-37.09 132.08,-37.32 131.73,-37.55 131.46,-37.89 131.20,-38.22 131.06,-38.62 130.91,-39.02 130.90,-39.44 130.90,-39.87 131.02,-40.27 131.15,-40.68 131.40,-41.02 131.65,-41.37 132.00,-41.61 132.35,-41.86 132.75,-41.98 133.16,-42.10 133.58,-42.09 134.01,-42.07 134.41,-41.92 134.80,-41.77 135.13,-41.50 135.46,-41.23 135.69,-40.87 135.92,-40.51 136.02,-40.10 136.11,-39.69 136.08,-39.27 136.04,-38.84 135.87,-38.45 135.70,-38.06 135.41,-37.75 135.13,-37.44 134.75,-37.23 134.38,-37.02 133.96,-36.95 133.55,-36.87 133.13,-36.93 132.71,-36.99 132.33,-37.18 131.95,-37.37 131.65,-37.68 131.35,-37.98 131.16,-38.36 130.98,-38.74 130.92,-39.16 130.87,-39.59 130.95,-40.00 131.04,-40.42 131.25,-40.79 131.46,-41.16 132.22,-41.61 132.98,-42.07 133.29,-42.09 133.61,-42.12 133.92,-42.07 134.23,-42.02 134.52,-41.89 134.81,-41.77 135.07,-41.58 135.32,-41.38 135.52,-41.14 135.72,-40.89 135.85,-40.61 135.99,-40.32 136.05,-40.01 136.11,-39.70 136.10,-39.38 136.09,-39.07 136.00,-38.76 135.91,-38.46 135.75,-38.19 135.59,-37.91 135.37,-37.68 135.15,-37.46 134.88,-37.29 134.62,-37.12 134.31,-37.02 134.01,-36.92 132.45,-36.66 130.89,-36.40 128.18,-35.62 125.47,-34.84 123.38,-34.34 121.30,-33.84 118.66,-33.04 116.02,-32.25 113.70,-31.77 111.37,-31.29 109.10,-30.77 106.82,-30.26 104.40,-29.51 101.97,-28.77 99.51,-27.90 97.04,-27.04 94.97,-26.27 92.90,-25.49 90.73,-24.55 88.56,-23.61 86.49,-22.61 84.42,-21.62 81.43,-20.35 78.43,-19.08 76.10,-18.05 73.77,-17.01 71.23,-16.22 68.69,-15.43 66.29,-14.46 63.88,-13.49 61.22,-12.36 58.56,-11.24 56.36,-10.93 54.17,-10.62 51.35,-10.03 48.53,-9.43 45.36,-8.56 42.18,-7.69 39.87,-7.03 37.56,-6.37 34.96,-5.85 32.36,-5.32 30.02,-4.95 27.68,-4.57 24.48,-3.86 21.28,-3.16 18.66,-2.63 16.03,-2.10 13.32,-1.48 10.62,-0.86 7.82,0.05 5.03,0.96 3.46,1.96 1.89,2.97 1.50,3.15 1.12,3.33 0.70,3.42 0.29,3.50 -0.13,3.49 -0.55,3.47 -0.96,3.36 -1.37,3.24 -1.73,3.03 -2.10,2.82 -2.41,2.52 -2.72,2.23 -2.94,1.87 -3.17,1.51 -3.31,1.11 -3.44,0.71 -3.48,0.29 -3.51,-0.13 -3.45,-0.55 -3.38,-0.97 -3.22,-1.36 -3.05,-1.75 -2.80,-2.09 -2.54,-2.43 -2.21,-2.70 -1.89,-2.97 -1.89,-2.97 L -1.89,-2.97 Z"></path></g><g transform="translate(64 99.5) rotate(0 35.75 -36)" stroke="none"><path fill="#1e1e1e" d="M 2.93,1.95 Q 2.93,1.95 2.36,2.78 1.80,3.61 1.52,5.90 1.23,8.19 -0.82,8.84 -2.88,9.50 -1.32,7.41 0.24,5.32 2.07,3.26 3.91,1.20 5.72,-1.13 7.54,-3.47 9.30,-5.59 11.05,-7.71 12.72,-9.87 14.39,-12.04 15.99,-14.00 17.60,-15.95 19.17,-17.59 20.75,-19.23 22.32,-20.89 23.89,-22.56 25.54,-24.81 27.19,-27.06 29.15,-29.82 31.11,-32.58 32.68,-34.56 34.24,-36.54 35.81,-38.18 37.37,-39.82 39.04,-41.74 40.71,-43.67 41.91,-45.50 43.11,-47.34 44.11,-49.24 45.11,-51.14 46.16,-53.08 47.22,-55.01 49.04,-57.58 50.86,-60.15 52.54,-61.92 54.23,-63.69 55.97,-65.80 57.71,-67.91 59.40,-70.69 61.09,-73.48 62.60,-75.72 64.11,-77.96 65.61,-79.72 67.11,-81.48 68.86,-83.57 70.60,-85.66 70.65,-85.29 70.70,-84.91 70.95,-85.10 71.21,-85.29 71.50,-85.41 71.80,-85.53 72.11,-85.57 72.42,-85.62 72.74,-85.59 73.05,-85.56 73.35,-85.46 73.65,-85.35 73.92,-85.18 74.18,-85.01 74.40,-84.78 74.61,-84.55 74.77,-84.27 74.92,-83.99 75.01,-83.69 75.09,-83.38 75.10,-83.07 75.11,-82.75 75.04,-82.44 74.98,-82.13 74.84,-81.85 74.70,-81.56 74.49,-81.32 74.29,-81.08 73.71,-80.76 73.14,-80.45 72.71,-80.41 72.29,-80.38 71.88,-80.48 71.47,-80.58 71.11,-80.81 70.75,-81.03 70.48,-81.36 70.21,-81.69 70.07,-82.09 69.92,-82.49 69.90,-82.92 69.89,-83.34 70.01,-83.75 70.14,-84.15 70.38,-84.50 70.63,-84.85 70.98,-85.10 71.32,-85.34 71.73,-85.47 72.13,-85.60 72.56,-85.59 72.98,-85.58 73.38,-85.43 73.78,-85.29 74.11,-85.02 74.44,-84.76 74.67,-84.40 74.90,-84.04 75.01,-83.63 75.11,-83.22 75.08,-82.79 75.05,-82.37 74.88,-81.98 74.71,-81.59 74.43,-81.27 74.15,-80.95 73.78,-80.74 73.41,-80.53 72.99,-80.45 72.57,-80.37 72.15,-80.43 71.73,-80.48 71.35,-80.67 70.97,-80.86 70.67,-81.16 70.37,-81.46 70.18,-81.84 69.99,-82.22 69.93,-82.64 69.87,-83.06 69.95,-83.48 70.03,-83.89 70.23,-84.26 70.44,-84.63 70.76,-84.92 71.07,-85.20 70.89,-85.06 70.70,-84.91 70.95,-85.10 71.21,-85.29 71.50,-85.41 71.80,-85.53 72.11,-85.57 72.42,-85.62 72.74,-85.59 73.05,-85.56 73.35,-85.46 73.65,-85.35 73.92,-85.18 74.18,-85.01 74.40,-84.78 74.61,-84.55 74.77,-84.27 74.92,-83.99 75.01,-83.69 75.09,-83.38 75.10,-83.07 75.11,-82.75 75.04,-82.44 74.98,-82.13 74.84,-81.85 74.70,-81.56 74.49,-81.32 74.29,-81.08 74.61,-80.68 74.93,-80.29 73.66,-78.56 72.40,-76.83 70.92,-75.10 69.44,-73.36 68.20,-71.47 66.95,-69.58 65.79,-67.66 64.62,-65.74 62.58,-63.06 60.53,-60.37 58.90,-58.54 57.26,-56.71 55.75,-54.83 54.23,-52.94 52.80,-50.43 51.37,-47.91 50.27,-45.84 49.18,-43.76 47.87,-41.76 46.57,-39.75 45.09,-37.93 43.61,-36.11 41.59,-34.02 39.57,-31.93 38.23,-30.24 36.89,-28.55 35.55,-26.55 34.22,-24.55 32.96,-22.82 31.69,-21.09 30.01,-18.91 28.32,-16.73 26.07,-14.51 23.82,-12.30 22.36,-10.56 20.90,-8.82 19.40,-6.98 17.90,-5.14 16.38,-3.16 14.86,-1.19 13.24,0.88 11.62,2.96 9.78,5.09 7.94,7.22 5.96,9.42 3.98,11.63 2.08,13.73 0.17,15.83 -2.14,15.66 -4.46,15.49 -5.30,12.55 -6.13,9.61 -5.74,7.39 -5.34,5.18 -4.72,2.50 -4.10,-0.16 -3.51,-1.06 -2.93,-1.95 -2.65,-2.27 -2.37,-2.59 -2.03,-2.84 -1.68,-3.09 -1.29,-3.24 -0.89,-3.40 -0.47,-3.46 -0.05,-3.52 0.36,-3.47 0.78,-3.43 1.18,-3.28 1.58,-3.14 1.93,-2.90 2.29,-2.67 2.57,-2.36 2.86,-2.04 3.06,-1.67 3.27,-1.30 3.38,-0.89 3.48,-0.48 3.49,-0.05 3.50,0.36 3.40,0.78 3.31,1.19 3.12,1.57 2.93,1.95 2.93,1.95 L 2.93,1.95 Z"></path></g><g transform="translate(64.5 67.5) rotate(0 33.25 -26)" stroke="none"><path fill="#1e1e1e" d="M -2.07,-2.84 Q -2.07,-2.84 -0.49,-3.99 1.09,-5.14 4.05,-7.17 7.02,-9.20 9.94,-11.10 12.86,-12.99 15.40,-14.90 17.93,-16.81 19.68,-18.54 21.43,-20.28 23.33,-22.23 25.22,-24.18 26.99,-25.58 28.77,-26.99 31.35,-28.65 33.94,-30.32 36.01,-31.82 38.09,-33.32 39.98,-35.55 41.86,-37.79 43.69,-39.64 45.52,-41.50 47.59,-43.63 49.66,-45.75 51.96,-47.61 54.26,-49.46 56.71,-50.65 59.15,-51.85 61.37,-53.26 63.58,-54.67 64.49,-54.63 65.40,-54.59 65.68,-54.75 65.95,-54.91 66.25,-55.00 66.56,-55.09 66.87,-55.10 67.19,-55.11 67.50,-55.05 67.81,-54.99 68.10,-54.86 68.39,-54.72 68.63,-54.52 68.88,-54.33 69.07,-54.07 69.26,-53.82 69.39,-53.53 69.51,-53.24 69.57,-52.93 69.62,-52.62 69.60,-52.30 69.57,-51.98 69.47,-51.68 69.37,-51.38 69.21,-51.11 69.04,-50.85 68.81,-50.63 68.59,-50.40 68.46,-50.32 68.34,-50.24 67.95,-50.08 67.55,-49.93 67.13,-49.91 66.70,-49.88 66.29,-50.00 65.89,-50.11 65.53,-50.35 65.18,-50.59 64.93,-50.93 64.67,-51.27 64.54,-51.67 64.40,-52.08 64.40,-52.50 64.40,-52.93 64.54,-53.33 64.68,-53.73 64.94,-54.07 65.19,-54.41 65.55,-54.64 65.90,-54.88 66.31,-54.99 66.72,-55.11 67.14,-55.08 67.57,-55.06 67.96,-54.90 68.36,-54.74 68.68,-54.47 69.00,-54.19 69.22,-53.82 69.44,-53.46 69.53,-53.04 69.62,-52.63 69.57,-52.21 69.52,-51.78 69.34,-51.40 69.16,-51.01 68.87,-50.71 68.58,-50.40 68.20,-50.20 67.83,-50.00 67.41,-49.94 66.99,-49.87 66.57,-49.94 66.15,-50.01 65.77,-50.21 65.40,-50.41 65.11,-50.72 64.82,-51.03 64.64,-51.41 64.46,-51.80 64.42,-52.22 64.37,-52.65 64.47,-53.06 64.56,-53.47 64.78,-53.84 65.00,-54.20 65.20,-54.39 65.40,-54.59 65.68,-54.75 65.95,-54.91 66.25,-55.00 66.56,-55.09 66.87,-55.10 67.19,-55.11 67.50,-55.05 67.81,-54.99 68.10,-54.86 68.39,-54.72 68.63,-54.52 68.88,-54.33 69.07,-54.07 69.26,-53.82 69.39,-53.53 69.51,-53.24 69.57,-52.93 69.62,-52.62 69.60,-52.30 69.57,-51.99 69.47,-51.68 69.37,-51.38 69.21,-51.11 69.04,-50.85 68.81,-50.63 68.59,-50.40 68.36,-49.86 68.14,-49.32 65.89,-47.91 63.65,-46.51 61.58,-45.40 59.50,-44.29 57.53,-42.84 55.55,-41.38 53.74,-39.67 51.94,-37.95 50.03,-36.04 48.13,-34.13 46.24,-32.12 44.34,-30.11 41.75,-27.68 39.15,-25.26 36.77,-23.79 34.39,-22.32 32.32,-20.78 30.24,-19.24 28.43,-17.38 26.62,-15.52 24.43,-13.37 22.23,-11.23 19.48,-9.17 16.72,-7.10 13.70,-5.14 10.68,-3.18 7.95,-1.31 5.23,0.54 3.65,1.69 2.07,2.84 1.70,3.05 1.32,3.26 0.92,3.37 0.51,3.48 0.08,3.49 -0.33,3.50 -0.75,3.41 -1.16,3.32 -1.54,3.13 -1.92,2.94 -2.25,2.67 -2.57,2.39 -2.82,2.05 -3.07,1.71 -3.23,1.31 -3.39,0.92 -3.45,0.50 -3.52,0.08 -3.48,-0.33 -3.43,-0.75 -3.29,-1.15 -3.15,-1.55 -2.92,-1.91 -2.69,-2.27 -2.38,-2.55 -2.07,-2.84 -2.07,-2.84 L -2.07,-2.84 Z"></path></g></svg>